<?xml version="1.0" encoding="UTF-8" standalone="no"?>
<!-- Created with Inkscape (http://www.inkscape.org/) -->

<svg
   version="1.1"
   id="svg2"
   width="1333.3333"
   height="1333.3333"
   viewBox="0 0 1333.3333 1333.3333"
   sodipodi:docname="DonQ_logo_vector_color.ai"
   xmlns:inkscape="http://www.inkscape.org/namespaces/inkscape"
   xmlns:sodipodi="http://sodipodi.sourceforge.net/DTD/sodipodi-0.dtd"
   xmlns="http://www.w3.org/2000/svg"
   xmlns:svg="http://www.w3.org/2000/svg">
  <defs
     id="defs6">
    <clipPath
       clipPathUnits="userSpaceOnUse"
       id="clipPath16">
      <path
         d="M 0,1000 H 1000 V 0 H 0 Z"
         id="path14" />
    </clipPath>
    <linearGradient
       x1="0"
       y1="0"
       x2="1"
       y2="0"
       gradientUnits="userSpaceOnUse"
       gradientTransform="matrix(73.624916,0,0,-73.624916,678.18011,131.38287)"
       spreadMethod="pad"
       id="linearGradient52">
      <stop
         style="stop-opacity:1;stop-color:#ff6700"
         offset="0"
         id="stop46" />
      <stop
         style="stop-opacity:1;stop-color:#7a09af"
         offset="0.73696312"
         id="stop48" />
      <stop
         style="stop-opacity:1;stop-color:#7a09af"
         offset="1"
         id="stop50" />
    </linearGradient>
    <linearGradient
       x1="0"
       y1="0"
       x2="1"
       y2="0"
       gradientUnits="userSpaceOnUse"
       gradientTransform="matrix(73.610878,0,0,-73.610878,663.37317,131.38287)"
       spreadMethod="pad"
       id="linearGradient74">
      <stop
         style="stop-opacity:1;stop-color:#7a09af"
         offset="0"
         id="stop68" />
      <stop
         style="stop-opacity:1;stop-color:#7a09af"
         offset="0.30469608"
         id="stop70" />
      <stop
         style="stop-opacity:1;stop-color:#ff6700"
         offset="1"
         id="stop72" />
    </linearGradient>
    <linearGradient
       x1="0"
       y1="0"
       x2="1"
       y2="0"
       gradientUnits="userSpaceOnUse"
       gradientTransform="matrix(258.28378,-258.28378,258.28378,258.28378,500.79602,665.43054)"
       spreadMethod="pad"
       id="linearGradient94">
      <stop
         style="stop-opacity:1;stop-color:#7a09af"
         offset="0"
         id="stop90" />
      <stop
         style="stop-opacity:1;stop-color:#ff6700"
         offset="1"
         id="stop92" />
    </linearGradient>
    <linearGradient
       x1="0"
       y1="0"
       x2="1"
       y2="0"
       gradientUnits="userSpaceOnUse"
       gradientTransform="matrix(258.28339,258.28339,258.28339,-258.28339,500.80249,618.5589)"
       spreadMethod="pad"
       id="linearGradient116">
      <stop
         style="stop-opacity:1;stop-color:#ff6700"
         offset="0"
         id="stop110" />
      <stop
         style="stop-opacity:1;stop-color:#7a09af"
         offset="0.73696312"
         id="stop112" />
      <stop
         style="stop-opacity:1;stop-color:#7a09af"
         offset="1"
         id="stop114" />
    </linearGradient>
    <linearGradient
       x1="0"
       y1="0"
       x2="1"
       y2="0"
       gradientUnits="userSpaceOnUse"
       gradientTransform="matrix(-258.28378,258.28378,-258.28378,-258.28378,498.5542,544.8512)"
       spreadMethod="pad"
       id="linearGradient136">
      <stop
         style="stop-opacity:1;stop-color:#7a09af"
         offset="0"
         id="stop132" />
      <stop
         style="stop-opacity:1;stop-color:#ff6700"
         offset="1"
         id="stop134" />
    </linearGradient>
    <linearGradient
       x1="0"
       y1="0"
       x2="1"
       y2="0"
       gradientUnits="userSpaceOnUse"
       gradientTransform="matrix(-258.28339,-258.28339,-258.28339,258.28339,498.54773,591.72278)"
       spreadMethod="pad"
       id="linearGradient158">
      <stop
         style="stop-opacity:1;stop-color:#ff6700"
         offset="0"
         id="stop152" />
      <stop
         style="stop-opacity:1;stop-color:#7a09af"
         offset="0.73696312"
         id="stop154" />
      <stop
         style="stop-opacity:1;stop-color:#7a09af"
         offset="1"
         id="stop156" />
    </linearGradient>
    <clipPath
       clipPathUnits="userSpaceOnUse"
       id="clipPath168">
      <path
         d="M 0,1000 H 1000 V 0 H 0 Z"
         id="path166" />
    </clipPath>
  </defs>
  <sodipodi:namedview
     id="namedview4"
     pagecolor="#ffffff"
     bordercolor="#000000"
     borderopacity="0.25"
     inkscape:showpageshadow="2"
     inkscape:pageopacity="0.0"
     inkscape:pagecheckerboard="0"
     inkscape:deskcolor="#d1d1d1" />
  <g
     id="g8"
     inkscape:groupmode="layer"
     inkscape:label="DonQ_logo_vector_color"
     transform="matrix(1.3333333,0,0,-1.3333333,0,1333.3333)">
    <g
       id="g10">
      <g
         id="g12"
         clip-path="url(#clipPath16)">
        <g
           id="g18"
           transform="translate(717.6649,172.9252)">
          <path
             d="m 0,0 c -0.083,4.048 -0.485,7.613 -1.386,11.117 -2.104,8.191 -6.065,15.366 -12.545,21.079 -9.381,8.268 -20.359,11.037 -32.718,8.551 -6.689,-1.345 -12.319,-4.705 -17.136,-9.301 -8.319,-7.937 -12.351,-17.777 -13.003,-28.953 -0.471,-8.067 1.39,-15.706 5.293,-22.836 4.142,-7.565 10.141,-13.374 18.085,-17.129 7.978,-3.771 16.343,-4.145 24.806,-1.857 6.79,1.836 12.417,5.615 17.123,10.642 C -3.762,-20.443 -0.303,-10.578 0,0 m -40.498,-71.444 c -0.255,0.056 -0.508,0.154 -0.764,0.163 -13.791,0.484 -26.309,4.613 -37.546,12.385 -12.476,8.628 -21.135,20.084 -26.515,33.936 -2.948,7.592 -4.547,15.449 -4.766,23.573 -0.295,10.885 1.916,21.287 6.412,31.229 5.533,12.234 13.752,22.398 25.057,30.109 7.951,5.424 16.624,9.263 26.218,11.016 2.958,0.54 5.931,0.961 8.945,1.07 0.371,0.014 0.738,0.121 1.107,0.185 2.547,0 5.094,0 7.641,0 0.369,-0.064 0.736,-0.172 1.107,-0.185 3.362,-0.116 6.685,-0.569 9.968,-1.242 C -10.283,68.059 1.131,61.799 10.817,52.571 19.304,44.485 25.32,34.845 29.15,23.93 31.271,17.885 32.732,11.698 32.962,5.28 32.971,5.035 33.079,4.792 33.141,4.548 V -3.546 C 33.074,-3.864 32.958,-4.182 32.949,-4.502 32.837,-8.867 32.011,-13.127 30.884,-17.334 27.198,-31.101 20.219,-43.031 9.55,-52.824 1.792,-59.945 -7.189,-65.139 -17.385,-68.292 c -5.987,-1.852 -12.153,-2.698 -18.412,-2.989 -0.257,-0.012 -0.51,-0.107 -0.764,-0.163 z"
             style="fill:#141414;fill-opacity:1;fill-rule:nonzero;stroke:none"
             id="path20" />
        </g>
        <g
           id="g22"
           transform="translate(281.0578,133.1866)">
          <path
             d="m 0,0 c 0.338,-0.027 0.609,-0.067 0.88,-0.067 3.076,-0.005 6.154,-0.08 9.226,0.023 2.159,0.073 4.336,0.249 6.458,0.623 7.565,1.333 14.065,4.795 19.391,10.04 10.794,10.632 14.996,23.399 12.063,38.075 -1.782,8.919 -6.268,16.549 -13.331,22.618 -6.9,5.93 -14.974,9.178 -24.287,9.31 -3.272,0.046 -6.545,0.027 -9.818,0.031 -0.187,0 -0.373,-0.06 -0.582,-0.096 z m -33.554,111.929 c 0.63,0.01 1.261,0.029 1.891,0.029 13.646,0.002 27.292,0.005 40.938,0 9.521,-0.004 18.776,-1.463 27.546,-5.126 16.794,-7.013 29.518,-18.296 37.851,-34.088 3.826,-7.251 6.307,-14.92 7.434,-22.98 C 82.932,43.857 82.97,37.936 82.221,32.01 80.818,20.905 76.949,10.663 70.675,1.278 63.641,-9.244 54.301,-17.356 42.891,-23.284 c -8.017,-4.165 -16.557,-6.674 -25.607,-7.514 -2.976,-0.276 -5.979,-0.402 -8.97,-0.411 -13.409,-0.043 -26.818,-0.02 -40.227,-0.013 -0.547,0 -1.094,0.084 -1.641,0.129 z"
             style="fill:#141414;fill-opacity:1;fill-rule:nonzero;stroke:none"
             id="path24" />
        </g>
        <g
           id="g26"
           transform="translate(411.6899,156.0957)">
          <path
             d="m 0,0 c 0.031,-0.514 0.048,-0.817 0.067,-1.12 0.35,-5.647 2.127,-10.811 5.829,-15.215 4.755,-5.656 10.894,-7.962 18.335,-6.57 4.188,0.783 7.602,3.004 10.307,6.115 5.832,6.705 7.682,14.442 5.724,22.99 -1.165,5.086 -3.673,9.478 -7.669,13.037 C 26.011,25.1 15.941,25.066 9.618,20.218 6.766,18.032 4.644,15.312 3.035,12.185 1.028,8.286 0.042,4.146 0,0 m 18.131,-54.083 c -1.229,0.152 -2.455,0.334 -3.688,0.452 -7.434,0.708 -14.356,2.931 -20.709,6.737 -13.995,8.386 -22.603,20.514 -26.031,36.058 -4.015,18.203 2.251,37.098 15.061,49.872 7.604,7.582 16.726,12.644 27.509,14.662 5.682,1.064 11.41,1.21 17.151,0.473 15.775,-2.025 27.792,-9.94 36.781,-22.424 5.382,-7.475 8.596,-15.847 9.683,-24.895 1.863,-15.52 -2.405,-29.418 -12.359,-41.619 -7.132,-8.742 -16.332,-14.572 -27.426,-17.534 -3.822,-1.021 -7.739,-1.446 -11.686,-1.663 -0.258,-0.014 -0.511,-0.103 -0.766,-0.158 -1.173,0.013 -2.347,0.026 -3.52,0.039"
             style="fill:#141414;fill-opacity:1;fill-rule:nonzero;stroke:none"
             id="path28" />
        </g>
        <g
           id="g30"
           transform="translate(560.0883,176.202)">
          <path
             d="M 0,0 H -27.376 V -74.161 H -60.434 V 31.107 c 0.903,0.221 92.054,0.28 93.514,0.06 0,-35.069 0,-70.15 -10e-4,-105.231 -0.837,-0.22 -31.188,-0.295 -32.998,-0.063 -0.026,0.368 -0.077,0.766 -0.077,1.163 C -0.002,-69.013 0,-65.063 0,-61.112 0,-41.246 0,-21.38 0,-1.514 Z"
             style="fill:#141414;fill-opacity:1;fill-rule:nonzero;stroke:none"
             id="path32" />
        </g>
      </g>
    </g>
    <g
       id="g34">
      <g
         id="g36">
        <g
           id="g42">
          <g
             id="g44">
            <path
               d="m 678.18,160.792 58.804,-58.818 14.819,10e-4 c 10e-4,0.001 10e-4,0.001 0.002,0.003 v 0 l -54.227,54.137 c -2.999,2.995 -7.065,4.677 -11.304,4.677 v 0 z"
               style="fill:url(#linearGradient52);stroke:none"
               id="path54" />
          </g>
        </g>
      </g>
    </g>
    <g
       id="g56">
      <g
         id="g58">
        <g
           id="g64">
          <g
             id="g66">
            <path
               d="m 663.373,160.792 54.151,-54.128 c 2.997,-2.996 7.062,-4.68 11.299,-4.684 v 0 l 8.161,-0.006 -58.804,58.818 z"
               style="fill:url(#linearGradient74);stroke:none"
               id="path76" />
          </g>
        </g>
      </g>
    </g>
    <g
       id="g78">
      <g
         id="g80">
        <g
           id="g86">
          <g
             id="g88">
            <path
               d="m 513.481,678.115 -25.369,-25.368 c -5.936,-5.937 -5.936,-15.561 0,-21.498 v 0 L 724.877,394.484 c 9.576,-9.576 25.949,-2.794 25.949,10.748 v 0 56.534 L 534.99,678.102 c -2.97,2.977 -6.865,4.465 -10.761,4.465 v 0 c -3.89,0 -7.78,-1.484 -10.748,-4.452"
               style="fill:url(#linearGradient94);stroke:none"
               id="path96" />
          </g>
        </g>
      </g>
    </g>
    <g
       id="g98">
      <g
         id="g100">
        <g
           id="g106">
          <g
             id="g108">
            <path
               d="M 724.877,889.511 488.112,652.747 c -5.936,-5.937 -5.936,-15.561 0,-21.498 v 0 l 36.129,-36.128 226.585,226.584 v 57.058 c 0,9.162 -7.497,15.23 -15.31,15.231 v 0 c -3.735,10e-4 -7.542,-1.385 -10.639,-4.483"
               style="fill:url(#linearGradient116);stroke:none"
               id="path118" />
          </g>
        </g>
      </g>
    </g>
    <g
       id="g120">
      <g
         id="g122">
        <g
           id="g128">
          <g
             id="g130">
            <path
               d="M 248.524,805.049 V 748.517 L 464.36,532.179 c 5.935,-5.947 15.569,-5.953 21.51,-0.012 v 0 l 25.369,25.369 c 5.935,5.935 5.935,15.56 0,21.496 v 0 L 274.473,815.798 c -3.097,3.097 -6.903,4.483 -10.639,4.482 v 0 c -7.813,-10e-4 -15.31,-6.069 -15.31,-15.231"
               style="fill:url(#linearGradient136);stroke:none"
               id="path138" />
          </g>
        </g>
      </g>
    </g>
    <g
       id="g140">
      <g
         id="g142">
        <g
           id="g148">
          <g
             id="g150">
            <path
               d="M 248.524,388.577 V 331.52 c 0,-13.543 16.373,-20.325 25.949,-10.749 v 0 l 236.765,236.765 c 5.936,5.935 5.936,15.56 10e-4,21.496 v 0 l -36.13,36.13 z"
               style="fill:url(#linearGradient158);stroke:none"
               id="path160" />
          </g>
        </g>
      </g>
    </g>
    <g
       id="g162">
      <g
         id="g164"
         clip-path="url(#clipPath168)">
        <g
           id="g170"
           transform="translate(499.2228,256.735)">
          <path
             d="m 0,0 v 0.005 l -93.694,0.004 c -6.467,0 -12.16,-4.263 -13.98,-10.469 L 0,-10.451 v -0.005 l 93.694,-0.004 c 6.467,-10e-4 12.16,4.263 13.98,10.469 z"
             style="fill:#141414;fill-opacity:1;fill-rule:nonzero;stroke:none"
             id="path172" />
        </g>
        <g
           id="g174"
           transform="translate(439.2142,449.7117)">
          <path
             d="m 0,0 -42.058,-182.143 h 58.11 c 5.483,0 10.155,4.626 11.215,10.999 3.552,21.365 17.226,37.282 33.554,37.282 16.327,0 30.002,-15.917 33.554,-37.282 1.059,-6.373 5.731,-10.999 11.215,-10.999 h 57.349 L 105.026,85.32 C 103.255,95.944 92.187,99.921 85.731,92.252 L 3.071,6.666 C 1.531,4.837 0.465,2.524 0,0"
             style="fill:#141414;fill-opacity:1;fill-rule:nonzero;stroke:none"
             id="path176" />
        </g>
      </g>
    </g>
  </g>
</svg>
