<svg width="1211" height="362" viewBox="0 0 1211 362" fill="none" xmlns="http://www.w3.org/2000/svg">
<mask id="path-1-outside-1_80_4529" maskUnits="userSpaceOnUse" x="-2" y="-1" width="1214" height="364" fill="black">
<rect fill="white" x="-2" y="-1" width="1214" height="364"/>
<path d="M0.0390626 -1.90735e-05H74.5391L169.539 273L264.039 -1.90735e-05H338.539L210.539 355H128.039L0.0390626 -1.90735e-05ZM375.832 90H447.832V355H375.832V90ZM374.832 55V-1.90735e-05H449.332V55H374.832ZM661.969 175.5C657.469 150.5 635.469 135 611.969 135C588.469 135 570.469 147.5 571.469 167C571.969 187.5 595.969 196 621.469 200.5C697.469 212.5 736.469 232.5 736.469 283C736.469 336 685.969 361 620.469 361C544.469 361 494.969 327.5 490.969 271L563.469 267.5C568.469 293.5 587.469 309 618.469 309C638.469 309 662.969 301.5 662.469 281.5C661.969 258 635.469 254 609.469 248.5C538.969 235 496.969 217 496.969 168C496.969 115 540.969 83.5 614.969 83.5C680.469 83.5 725.469 117.5 733.969 172.5L661.969 175.5ZM798.918 30H870.918V90H940.918V144H870.918V270C870.918 290 881.418 300.5 900.418 300.5H941.418V355H886.418C828.918 355 798.918 326.5 798.918 270V144H756.418V90H798.918V30ZM1038.56 282.5C1038.56 299.5 1052.56 316 1081.06 314.5C1115.06 313.5 1140.06 287.5 1139.56 243.5V236L1093.56 245C1062.06 251 1038.56 254 1038.56 282.5ZM964.563 284.5C964.563 234.5 1001.06 216.5 1059.06 205.5L1138.06 190.5V189.5C1138.06 150 1121.06 132.5 1090.06 132.5C1064.56 132.5 1046.56 148.5 1042.06 175.5L969.063 171.5C979.063 116.5 1023.06 84 1090.56 84C1167.06 84 1210.56 121.5 1210.56 199V355H1146.06L1144.06 317.5C1133.06 341 1105.06 360.5 1058.06 361.5C1006.06 361.5 964.563 331.5 964.563 284.5Z"/>
</mask>
<path d="M0.0390626 -1.90735e-05H74.5391L169.539 273L264.039 -1.90735e-05H338.539L210.539 355H128.039L0.0390626 -1.90735e-05ZM375.832 90H447.832V355H375.832V90ZM374.832 55V-1.90735e-05H449.332V55H374.832ZM661.969 175.5C657.469 150.5 635.469 135 611.969 135C588.469 135 570.469 147.5 571.469 167C571.969 187.5 595.969 196 621.469 200.5C697.469 212.5 736.469 232.5 736.469 283C736.469 336 685.969 361 620.469 361C544.469 361 494.969 327.5 490.969 271L563.469 267.5C568.469 293.5 587.469 309 618.469 309C638.469 309 662.969 301.5 662.469 281.5C661.969 258 635.469 254 609.469 248.5C538.969 235 496.969 217 496.969 168C496.969 115 540.969 83.5 614.969 83.5C680.469 83.5 725.469 117.5 733.969 172.5L661.969 175.5ZM798.918 30H870.918V90H940.918V144H870.918V270C870.918 290 881.418 300.5 900.418 300.5H941.418V355H886.418C828.918 355 798.918 326.5 798.918 270V144H756.418V90H798.918V30ZM1038.56 282.5C1038.56 299.5 1052.56 316 1081.06 314.5C1115.06 313.5 1140.06 287.5 1139.56 243.5V236L1093.56 245C1062.06 251 1038.56 254 1038.56 282.5ZM964.563 284.5C964.563 234.5 1001.06 216.5 1059.06 205.5L1138.06 190.5V189.5C1138.06 150 1121.06 132.5 1090.06 132.5C1064.56 132.5 1046.56 148.5 1042.06 175.5L969.063 171.5C979.063 116.5 1023.06 84 1090.56 84C1167.06 84 1210.56 121.5 1210.56 199V355H1146.06L1144.06 317.5C1133.06 341 1105.06 360.5 1058.06 361.5C1006.06 361.5 964.563 331.5 964.563 284.5Z" fill="url(#paint0_linear_80_4529)" style=""/>
<path d="M0.0390625 -1.52588e-05V-1.00002H-1.38452L-0.901656 0.339172L0.0390625 -1.52588e-05ZM74.5391 -1.52588e-05L75.4835 -0.328674L75.2499 -1.00002H74.5391V-1.52588e-05ZM169.539 273L168.595 273.329L169.542 276.05L170.484 273.327L169.539 273ZM264.039 -1.52588e-05V-1.00002H263.327L263.094 -0.327133L264.039 -1.52588e-05ZM338.539 -1.52588e-05L339.48 0.339172L339.963 -1.00002H338.539V-1.52588e-05ZM210.539 355V356H211.242L211.48 355.339L210.539 355ZM128.039 355L127.098 355.339L127.337 356H128.039V355ZM0.0390625 0.999985H74.5391V-1.00002H0.0390625V0.999985ZM73.5946 0.328636L168.595 273.329L170.484 272.671L75.4835 -0.328674L73.5946 0.328636ZM170.484 273.327L264.984 0.327095L263.094 -0.327133L168.594 272.673L170.484 273.327ZM264.039 0.999985H338.539V-1.00002H264.039V0.999985ZM337.598 -0.339211L209.598 354.661L211.48 355.339L339.48 0.339172L337.598 -0.339211ZM210.539 354H128.039V356H210.539V354ZM128.98 354.661L0.979781 -0.339211L-0.901656 0.339172L127.098 355.339L128.98 354.661ZM375.832 90V89H374.832V90H375.832ZM447.832 90H448.832V89H447.832V90ZM447.832 355V356H448.832V355H447.832ZM375.832 355H374.832V356H375.832V355ZM374.832 55H373.832V56H374.832V55ZM374.832 -1.52588e-05V-1.00002H373.832V-1.52588e-05H374.832ZM449.332 -1.52588e-05H450.332V-1.00002H449.332V-1.52588e-05ZM449.332 55V56H450.332V55H449.332ZM375.832 91H447.832V89H375.832V91ZM446.832 90V355H448.832V90H446.832ZM447.832 354H375.832V356H447.832V354ZM376.832 355V90H374.832V355H376.832ZM375.832 55V-1.52588e-05H373.832V55H375.832ZM374.832 0.999985H449.332V-1.00002H374.832V0.999985ZM448.332 -1.52588e-05V55H450.332V-1.52588e-05H448.332ZM449.332 54H374.832V56H449.332V54ZM661.969 175.5L660.985 175.677L661.139 176.535L662.01 176.499L661.969 175.5ZM571.469 167L572.468 166.976L572.468 166.962L572.467 166.949L571.469 167ZM621.469 200.5L621.295 201.485L621.304 201.486L621.313 201.488L621.469 200.5ZM490.969 271L490.921 270.001L489.899 270.05L489.971 271.071L490.969 271ZM563.469 267.5L564.451 267.311L564.287 266.459L563.421 266.501L563.469 267.5ZM662.469 281.5L661.469 281.521L661.469 281.525L662.469 281.5ZM609.469 248.5L609.676 247.522L609.666 247.52L609.657 247.518L609.469 248.5ZM733.969 172.5L734.01 173.499L735.128 173.453L734.957 172.347L733.969 172.5ZM662.953 175.323C658.357 149.787 635.89 134 611.969 134V136C635.047 136 656.581 151.213 660.985 175.677L662.953 175.323ZM611.969 134C600.055 134 589.451 137.167 581.926 142.892C574.375 148.635 569.952 156.941 570.47 167.051L572.467 166.949C571.986 157.559 576.062 149.865 583.137 144.483C590.236 139.083 600.383 136 611.969 136V134ZM570.469 167.024C570.731 177.749 577.171 185.268 586.6 190.62C596.003 195.957 608.517 199.23 621.295 201.485L621.643 199.515C608.921 197.27 596.684 194.043 587.587 188.88C578.517 183.732 572.707 176.751 572.468 166.976L570.469 167.024ZM621.313 201.488C659.293 207.485 687.857 215.46 706.915 228.145C716.425 234.475 723.55 241.966 728.303 250.959C733.058 259.954 735.469 270.506 735.469 283H737.469C737.469 270.244 735.005 259.358 730.072 250.025C725.138 240.69 717.763 232.963 708.023 226.48C688.581 213.54 659.644 205.515 621.625 199.512L621.313 201.488ZM735.469 283C735.469 309.119 723.053 328.313 702.505 341.025C681.908 353.767 653.114 360 620.469 360V362C653.324 362 682.53 355.733 703.557 342.725C724.634 329.687 737.469 309.881 737.469 283H735.469ZM620.469 360C582.602 360 551.445 351.653 529.287 336.364C507.157 321.096 493.944 298.87 491.966 270.929L489.971 271.071C491.993 299.63 505.531 322.404 528.151 338.011C550.742 353.597 582.335 362 620.469 362V360ZM491.017 271.999L563.517 268.499L563.421 266.501L490.921 270.001L491.017 271.999ZM562.487 267.689C565.026 280.891 571.137 291.496 580.609 298.792C590.073 306.082 602.804 310 618.469 310V308C603.134 308 590.864 304.168 581.829 297.208C572.801 290.253 566.912 280.109 564.451 267.311L562.487 267.689ZM618.469 310C628.568 310 639.863 308.11 648.611 303.641C657.383 299.159 663.731 291.989 663.468 281.475L661.469 281.525C661.706 291.011 656.054 297.591 647.701 301.859C639.324 306.14 628.369 308 618.469 308V310ZM663.469 281.479C663.339 275.4 661.522 270.531 658.419 266.585C655.329 262.655 651.008 259.696 645.953 257.343C635.884 252.657 622.607 250.257 609.676 247.522L609.262 249.478C622.33 252.243 635.304 254.593 645.109 259.157C649.992 261.429 654.015 264.22 656.847 267.821C659.666 271.406 661.348 275.85 661.469 281.521L663.469 281.479ZM609.657 247.518C574.413 240.769 546.456 232.92 527.319 220.719C517.768 214.63 510.442 207.474 505.5 198.854C500.56 190.238 497.969 180.101 497.969 168H495.969C495.969 180.399 498.627 190.887 503.765 199.849C508.901 208.807 516.482 216.182 526.244 222.406C545.731 234.83 574.024 242.731 609.281 249.482L609.657 247.518ZM497.969 168C497.969 141.815 508.819 120.996 528.801 106.688C548.823 92.3513 578.092 84.5 614.969 84.5V82.5C577.845 82.5 548.115 90.3986 527.637 105.062C507.118 119.754 495.969 141.185 495.969 168H497.969ZM614.969 84.5C647.549 84.5 674.951 92.9553 695.244 108.175C715.526 123.387 728.769 145.4 732.98 172.653L734.957 172.347C730.669 144.6 717.162 122.113 696.444 106.575C675.737 91.0446 647.888 82.5 614.969 82.5V84.5ZM733.927 171.501L661.927 174.501L662.01 176.499L734.01 173.499L733.927 171.501ZM798.918 30V29H797.918V30H798.918ZM870.918 30H871.918V29H870.918V30ZM870.918 90H869.918V91H870.918V90ZM940.918 90H941.918V89H940.918V90ZM940.918 144V145H941.918V144H940.918ZM870.918 144V143H869.918V144H870.918ZM941.418 300.5H942.418V299.5H941.418V300.5ZM941.418 355V356H942.418V355H941.418ZM798.918 144H799.918V143H798.918V144ZM756.418 144H755.418V145H756.418V144ZM756.418 90V89H755.418V90H756.418ZM798.918 90V91H799.918V90H798.918ZM798.918 31H870.918V29H798.918V31ZM869.918 30V90H871.918V30H869.918ZM870.918 91H940.918V89H870.918V91ZM939.918 90V144H941.918V90H939.918ZM940.918 143H870.918V145H940.918V143ZM869.918 144V270H871.918V144H869.918ZM869.918 270C869.918 280.166 872.588 288.078 877.827 293.448C883.07 298.822 890.738 301.5 900.418 301.5V299.5C891.098 299.5 884.016 296.928 879.259 292.052C874.498 287.172 871.918 279.834 871.918 270H869.918ZM900.418 301.5H941.418V299.5H900.418V301.5ZM940.418 300.5V355H942.418V300.5H940.418ZM941.418 354H886.418V356H941.418V354ZM886.418 354C857.82 354 836.236 346.913 821.8 332.968C807.37 319.03 799.918 298.08 799.918 270H797.918C797.918 298.42 805.466 319.97 820.411 334.407C835.35 348.837 857.516 356 886.418 356V354ZM799.918 270V144H797.918V270H799.918ZM798.918 143H756.418V145H798.918V143ZM757.418 144V90H755.418V144H757.418ZM756.418 91H798.918V89H756.418V91ZM799.918 90V30H797.918V90H799.918ZM1081.06 314.5L1081.03 313.5L1081.02 313.501L1081.01 313.501L1081.06 314.5ZM1139.56 243.5H1138.56L1138.56 243.511L1139.56 243.5ZM1139.56 236H1140.56V234.785L1139.37 235.019L1139.56 236ZM1093.56 245L1093.75 245.982L1093.75 245.981L1093.56 245ZM1059.06 205.5L1059.25 206.482L1059.25 206.482L1059.06 205.5ZM1138.06 190.5L1138.25 191.482L1139.06 191.328V190.5H1138.06ZM1042.06 175.5L1042.01 176.498L1042.9 176.547L1043.05 175.664L1042.06 175.5ZM969.062 171.5L968.079 171.321L967.876 172.436L969.008 172.498L969.062 171.5ZM1210.56 355V356H1211.56V355H1210.56ZM1146.06 355L1145.06 355.053L1145.11 356H1146.06V355ZM1144.06 317.5L1145.06 317.447L1143.16 317.076L1144.06 317.5ZM1058.06 361.5V362.5H1058.07L1058.08 362.5L1058.06 361.5ZM1037.56 282.5C1037.56 291.279 1041.18 299.936 1048.47 306.196C1055.77 312.458 1066.66 316.259 1081.12 315.499L1081.01 313.501C1066.96 314.241 1056.61 310.542 1049.78 304.679C1042.94 298.814 1039.56 290.721 1039.56 282.5H1037.56ZM1081.09 315.5C1098.35 314.992 1113.37 308.131 1124.01 295.777C1134.64 283.431 1140.81 265.678 1140.56 243.489L1138.56 243.511C1138.81 265.322 1132.74 282.569 1122.49 294.473C1112.25 306.369 1097.77 313.008 1081.03 313.5L1081.09 315.5ZM1140.56 243.5V236H1138.56V243.5H1140.56ZM1139.37 235.019L1093.37 244.019L1093.75 245.981L1139.75 236.981L1139.37 235.019ZM1093.38 244.018C1077.71 247.002 1063.77 249.277 1053.79 254.424C1048.77 257.016 1044.69 260.362 1041.87 264.937C1039.06 269.512 1037.56 275.236 1037.56 282.5H1039.56C1039.56 275.514 1041 270.175 1043.58 265.985C1046.16 261.795 1049.92 258.672 1054.71 256.201C1064.36 251.223 1077.92 248.998 1093.75 245.982L1093.38 244.018ZM965.562 284.5C965.562 259.796 974.553 243.103 990.658 231.179C1006.84 219.196 1030.27 211.978 1059.25 206.482L1058.88 204.517C1029.85 210.022 1006.03 217.304 989.467 229.571C972.822 241.897 963.562 259.204 963.562 284.5H965.562ZM1059.25 206.482L1138.25 191.482L1137.88 189.518L1058.88 204.518L1059.25 206.482ZM1139.06 190.5V189.5H1137.06V190.5H1139.06ZM1139.06 189.5C1139.06 169.63 1134.79 155.099 1126.44 145.53C1118.07 135.934 1105.75 131.5 1090.06 131.5V133.5C1105.37 133.5 1117.06 137.816 1124.93 146.845C1132.84 155.901 1137.06 169.87 1137.06 189.5H1139.06ZM1090.06 131.5C1077.1 131.5 1065.97 135.573 1057.52 143.129C1049.07 150.682 1043.36 161.653 1041.08 175.336L1043.05 175.664C1045.27 162.347 1050.8 151.818 1058.85 144.621C1066.9 137.427 1077.53 133.5 1090.06 133.5V131.5ZM1042.12 174.501L969.117 170.501L969.008 172.498L1042.01 176.498L1042.12 174.501ZM970.046 171.679C975.004 144.413 988.373 122.772 1008.84 107.935C1029.31 93.0873 1056.97 85 1090.56 85V83C1056.66 83 1028.56 91.1627 1007.66 106.315C986.752 121.478 973.121 143.587 968.079 171.321L970.046 171.679ZM1090.56 85C1128.66 85 1158.38 94.3387 1178.57 113.169C1198.74 131.987 1209.56 160.435 1209.56 199H1211.56C1211.56 160.065 1200.63 131.013 1179.93 111.706C1159.25 92.4112 1128.96 83 1090.56 83V85ZM1209.56 199V355H1211.56V199H1209.56ZM1210.56 354H1146.06V356H1210.56V354ZM1147.06 354.947L1145.06 317.447L1143.06 317.553L1145.06 355.053L1147.06 354.947ZM1143.16 317.076C1132.36 340.139 1104.78 359.506 1058.04 360.5L1058.08 362.5C1105.35 361.494 1133.76 341.861 1144.97 317.924L1143.16 317.076ZM1058.06 360.5C1006.39 360.5 965.562 330.743 965.562 284.5H963.562C963.562 332.257 1005.74 362.5 1058.06 362.5V360.5Z" fill="url(#paint1_linear_80_4529)" style="" mask="url(#path-1-outside-1_80_4529)"/>
<defs>
<linearGradient id="paint0_linear_80_4529" x1="-12" y1="-70" x2="1280.44" y2="152.328" gradientUnits="userSpaceOnUse">
<stop stop-color="white" stop-opacity="0.2" style="stop-color:white;stop-opacity:0.2;"/>
<stop offset="1" stop-color="white" stop-opacity="0.1" style="stop-color:white;stop-opacity:0.1;"/>
</linearGradient>
<linearGradient id="paint1_linear_80_4529" x1="615.5" y1="-70" x2="615.5" y2="430" gradientUnits="userSpaceOnUse">
<stop stop-color="white" stop-opacity="0.3" style="stop-color:white;stop-opacity:0.3;"/>
<stop offset="1" stop-color="white" stop-opacity="0.2" style="stop-color:white;stop-opacity:0.2;"/>
</linearGradient>
</defs>
</svg>
