<svg width="1216" height="376" viewBox="0 0 1216 376" fill="none" xmlns="http://www.w3.org/2000/svg">
<line x1="1039" y1="145" x2="1039" y2="221" stroke="white" stroke-opacity="0.15" style="stroke:white;stroke-opacity:0.15;"/>
<path d="M1539.04 428.564L1347.37 223.04C1345.86 221.418 1343.74 220.497 1341.52 220.497L1043.34 220.474C1041.22 220.474 1039.18 221.317 1037.68 222.817L779.937 480.564C778.437 482.064 777.594 484.099 777.594 486.221L777.594 656.978C777.594 659.225 778.539 661.369 780.199 662.885L955.635 823.119C957.2 824.548 958.134 826.541 958.232 828.658L963.342 939.601C963.552 944.159 959.913 947.97 955.35 947.97L-3.14008e-05 947.97" stroke="white" stroke-opacity="0.15" style="stroke:white;stroke-opacity:0.15;"/>
<circle cx="1039.5" cy="221" r="10" fill="#4343BF" style="fill:#4343BF;fill:color(display-p3 0.2627 0.2627 0.7490);fill-opacity:1;"/>
<circle opacity="0.2" cx="1039.5" cy="221" r="8.33333" fill="white" style="fill:white;fill-opacity:1;"/>
<g clip-path="url(#clip0_183_4275)">
<path d="M1034.64 218.777H1044.36H1034.64Z" fill="#1E1EAD" style="fill:#1E1EAD;fill:color(display-p3 0.1176 0.1176 0.6784);fill-opacity:1;"/>
<path d="M1034.64 218.777H1044.36" stroke="#1E1EAD" style="stroke:#1E1EAD;stroke:color(display-p3 0.1176 0.1176 0.6784);stroke-opacity:1;" stroke-width="2" stroke-linecap="round" stroke-linejoin="round"/>
<path d="M1034.64 223.222H1044.36H1034.64Z" fill="#1E1EAD" style="fill:#1E1EAD;fill:color(display-p3 0.1176 0.1176 0.6784);fill-opacity:1;"/>
<path d="M1034.64 223.222H1044.36" stroke="#1E1EAD" style="stroke:#1E1EAD;stroke:color(display-p3 0.1176 0.1176 0.6784);stroke-opacity:1;" stroke-width="2" stroke-linecap="round" stroke-linejoin="round"/>
</g>
<path d="M1289.5 57V106.846V137C1289.5 141.418 1285.92 145 1281.5 145H1020.6C1018.5 145 1016.49 144.178 1015 142.71L926.486 55.855C923.929 53.3463 925.705 49 929.287 49H1281.5C1285.92 49 1289.5 52.5817 1289.5 57Z" fill="url(#paint0_linear_183_4275)" stroke="white" stroke-opacity="0.15" style="stroke:white;stroke-opacity:0.15;"/>
<path d="M1256.36 659.91L971.653 655L941.499 655C937.081 655 933.499 651.418 933.499 647L933.499 386.1C933.499 384.004 934.322 381.993 935.789 380.497L1028.32 286.198C1029.08 285.432 1030.1 285 1031.18 285L1256.5 285C1260.92 285 1264.5 288.582 1264.5 293L1264.5 651.912C1264.5 656.384 1260.83 659.988 1256.36 659.91Z" fill="url(#paint1_linear_183_4275)" stroke="white" stroke-opacity="0.1" style="stroke:white;stroke-opacity:0.1;"/>
<path d="M879.026 -42.5V40.9998C879.026 45.4181 875.444 48.9998 871.026 48.9998H695.539C693.315 48.9998 691.518 50.814 691.539 53.038L692.34 137.076C692.382 141.464 695.951 145 700.34 145H781.331C785.749 145 789.331 148.582 789.331 153V356.007C789.331 358.234 788.402 360.36 786.769 361.874L650.301 488.367C648.822 489.738 646.879 490.5 644.863 490.5H170.5" stroke="white" stroke-opacity="0.15" style="stroke:white;stroke-opacity:0.15;"/>
<circle cx="879.5" cy="49" r="10" fill="#2E2E4E" style="fill:#2E2E4E;fill:color(display-p3 0.1804 0.1804 0.3059);fill-opacity:1;"/>
<circle opacity="0.2" cx="879.5" cy="49" r="8.33333" fill="white" style="fill:white;fill-opacity:1;"/>
<g clip-path="url(#clip1_183_4275)">
<path d="M879.5 46.2222C879.807 46.2222 880.056 45.9735 880.056 45.6666C880.056 45.3598 879.807 45.1111 879.5 45.1111C879.194 45.1111 878.945 45.3598 878.945 45.6666C878.945 45.9735 879.194 46.2222 879.5 46.2222Z" fill="#0A0A1F" stroke="#0A0A1F" style="fill:#0A0A1F;fill:color(display-p3 0.0402 0.0402 0.1206);fill-opacity:1;stroke:#0A0A1F;stroke:color(display-p3 0.0402 0.0402 0.1206);stroke-opacity:1;" stroke-width="2" stroke-linecap="round" stroke-linejoin="round"/>
<path d="M879.5 52.8889C879.807 52.8889 880.056 52.6402 880.056 52.3333C880.056 52.0265 879.807 51.7778 879.5 51.7778C879.194 51.7778 878.945 52.0265 878.945 52.3333C878.945 52.6402 879.194 52.8889 879.5 52.8889Z" fill="#0A0A1F" stroke="#0A0A1F" style="fill:#0A0A1F;fill:color(display-p3 0.0402 0.0402 0.1206);fill-opacity:1;stroke:#0A0A1F;stroke:color(display-p3 0.0402 0.0402 0.1206);stroke-opacity:1;" stroke-width="2" stroke-linecap="round" stroke-linejoin="round"/>
<path d="M875.611 49H883.389H875.611Z" fill="#0A0A1F" style="fill:#0A0A1F;fill:color(display-p3 0.0402 0.0402 0.1206);fill-opacity:1;"/>
<path d="M875.611 49H883.389" stroke="#0A0A1F" style="stroke:#0A0A1F;stroke:color(display-p3 0.0402 0.0402 0.1206);stroke-opacity:1;" stroke-width="2" stroke-linecap="round" stroke-linejoin="round"/>
</g>
<g opacity="0.2">
<g filter="url(#filter0_i_183_4275)">
<rect x="1039.5" y="69" width="114" height="56" rx="8" fill="url(#paint2_linear_183_4275)" style=""/>
</g>
<rect x="1041.5" y="71" width="110" height="52" rx="6" stroke="white" style="stroke:white;stroke-opacity:1;" stroke-width="4"/>
</g>
<rect x="1044" y="73.5" width="105" height="47" rx="3.5" fill="url(#paint3_linear_183_4275)" stroke="url(#paint4_linear_183_4275)" style=""/>
<path d="M1095.5 73H1073.12L1051.5 109H1072.42L1095.5 73Z" fill="url(#paint5_linear_183_4275)" style=""/>
<path d="M1133.5 73H1111.12L1089.5 109H1110.42L1133.5 73Z" fill="url(#paint6_linear_183_4275)" style=""/>
<g opacity="0.5" filter="url(#filter1_d_183_4275)">
<path d="M1061.75 110.112L1064.22 107.52H1070.15L1072.48 110.112H1061.75ZM1061.03 98.328L1063.62 100.824V106.704L1061.03 109.056V98.328ZM1073.24 109.056L1070.65 106.584V100.68L1073.24 98.328V109.056ZM1063.81 99.192C1063.25 98.744 1062.68 98.304 1062.11 97.872L1063.81 96.6H1070.36L1072.04 97.872L1070.36 99.192H1063.81ZM1061.72 85.728H1072.45L1070.08 88.32H1064.2L1061.72 85.728ZM1060.96 97.488V86.76L1063.55 89.088V95.04L1060.96 97.488ZM1073.17 86.76V97.488L1070.58 95.16V89.232L1073.17 86.76ZM1080.94 110.112L1083.42 107.52H1089.34L1091.67 110.112H1080.94ZM1080.22 98.328L1082.82 100.824V106.704L1080.22 109.056V98.328ZM1092.44 109.056L1089.85 106.584V100.68L1092.44 98.328V109.056ZM1083.01 99.192C1082.45 98.744 1081.88 98.304 1081.3 97.872L1083.01 96.6H1089.56L1091.24 97.872L1089.56 99.192H1083.01ZM1080.92 85.728H1091.65L1089.27 88.32H1083.39L1080.92 85.728ZM1080.15 97.488V86.76L1082.74 89.088V95.04L1080.15 97.488ZM1092.37 86.76V97.488L1089.78 95.16V89.232L1092.37 86.76ZM1100.14 110.112L1102.61 107.52H1108.54L1110.87 110.112H1100.14ZM1099.42 98.328L1102.01 100.824V106.704L1099.42 109.056V98.328ZM1111.63 109.056L1109.04 106.584V100.68L1111.63 98.328V109.056ZM1102.2 99.192C1101.64 98.744 1101.07 98.304 1100.5 97.872L1102.2 96.6H1108.75L1110.43 97.872L1108.75 99.192H1102.2ZM1100.11 85.728H1110.84L1108.47 88.32H1102.59L1100.11 85.728ZM1099.35 97.488V86.76L1101.94 89.088V95.04L1099.35 97.488ZM1111.56 86.76V97.488L1108.97 95.16V89.232L1111.56 86.76ZM1119.33 110.112L1121.81 107.52H1127.73L1130.06 110.112H1119.33ZM1118.61 98.328L1121.21 100.824V106.704L1118.61 109.056V98.328ZM1130.83 109.056L1128.24 106.584V100.68L1130.83 98.328V109.056ZM1121.4 99.192C1120.84 98.744 1120.27 98.304 1119.69 97.872L1121.4 96.6H1127.95L1129.63 97.872L1127.95 99.192H1121.4ZM1119.31 85.728H1130.04L1127.66 88.32H1121.78L1119.31 85.728ZM1118.54 97.488V86.76L1121.13 89.088V95.04L1118.54 97.488ZM1130.76 86.76V97.488L1128.17 95.16V89.232L1130.76 86.76Z" fill="white" style="fill:white;fill-opacity:1;"/>
</g>
<circle cx="789.5" cy="262" r="10" fill="#3A3AB5" style="fill:#3A3AB5;fill:color(display-p3 0.2275 0.2275 0.7098);fill-opacity:1;"/>
<circle opacity="0.2" cx="789.5" cy="262" r="8.33333" fill="white" style="fill:white;fill-opacity:1;"/>
<g clip-path="url(#clip2_183_4275)">
<path d="M793.5 258L785.5 266L793.5 258Z" fill="#2828B2" style="fill:#2828B2;fill:color(display-p3 0.1569 0.1569 0.6980);fill-opacity:1;"/>
<path d="M793.5 258L785.5 266" stroke="#2828B2" style="stroke:#2828B2;stroke:color(display-p3 0.1569 0.1569 0.6980);stroke-opacity:1;" stroke-width="2" stroke-linecap="round" stroke-linejoin="round"/>
<path d="M785.5 258L793.5 266L785.5 258Z" fill="#2828B2" style="fill:#2828B2;fill:color(display-p3 0.1569 0.1569 0.6980);fill-opacity:1;"/>
<path d="M785.5 258L793.5 266" stroke="#2828B2" style="stroke:#2828B2;stroke:color(display-p3 0.1569 0.1569 0.6980);stroke-opacity:1;" stroke-width="2" stroke-linecap="round" stroke-linejoin="round"/>
</g>
<circle cx="692" cy="95" r="10" fill="#292958" style="fill:#292958;fill:color(display-p3 0.1608 0.1608 0.3451);fill-opacity:1;"/>
<circle opacity="0.2" cx="692" cy="95" r="8.33333" fill="white" style="fill:white;fill-opacity:1;"/>
<g clip-path="url(#clip3_183_4275)">
<path d="M687.139 95H696.861H687.139Z" fill="#040443" style="fill:#040443;fill:color(display-p3 0.0157 0.0157 0.2627);fill-opacity:1;"/>
<path d="M687.139 95H696.861" stroke="#040443" style="stroke:#040443;stroke:color(display-p3 0.0157 0.0157 0.2627);stroke-opacity:1;" stroke-width="2" stroke-linecap="round" stroke-linejoin="round"/>
</g>
<rect x="821.5" y="156" width="170" height="32" rx="8" fill="url(#paint7_linear_183_4275)" style=""/>
<rect x="822" y="156.5" width="169" height="31" rx="7.5" stroke="white" stroke-opacity="0.1" style="stroke:white;stroke-opacity:0.1;"/>
<g opacity="0.7">
<mask id="mask0_183_4275" style="mask-type:luminance" maskUnits="userSpaceOnUse" x="834" y="165" width="15" height="14">
<path d="M846.5 166H836.5C836.235 166 835.98 166.105 835.793 166.293C835.605 166.48 835.5 166.735 835.5 167V177C835.5 177.265 835.605 177.52 835.793 177.707C835.98 177.895 836.235 178 836.5 178H846.5C846.765 178 847.02 177.895 847.207 177.707C847.395 177.52 847.5 177.265 847.5 177V167C847.5 166.735 847.395 166.48 847.207 166.293C847.02 166.105 846.765 166 846.5 166Z" fill="white" stroke="white" style="fill:white;fill-opacity:1;stroke:white;stroke-opacity:1;" stroke-width="2" stroke-linecap="round" stroke-linejoin="round"/>
<path d="M840.5 174.333L842.167 175.667L844.833 172.333M838.167 169H844.833M838.167 171.667H840.833" stroke="black" style="stroke:black;stroke-opacity:1;" stroke-width="2" stroke-linecap="round" stroke-linejoin="round"/>
</mask>
<g mask="url(#mask0_183_4275)">
<path d="M833.5 164H849.5V180H833.5V164Z" fill="white" style="fill:white;fill-opacity:1;"/>
</g>
</g>
<path opacity="0.7" d="M858.556 176V167.252H860.56L862.996 173.948H863.044L865.48 167.252H867.472V176H866.2V171.908L866.236 168.632H866.152L863.548 176H862.504L859.9 168.632H859.816L859.84 171.92V176H858.556ZM871.563 176.108C870.015 176.108 868.971 174.944 868.971 172.82C868.971 170.696 870.015 169.544 871.563 169.544C872.631 169.544 873.423 170.084 873.723 170.9H873.795L873.843 169.652H875.031V176H873.795V174.74H873.723C873.423 175.556 872.631 176.108 871.563 176.108ZM871.995 175.088C873.171 175.088 873.783 174.164 873.783 173.18V172.46C873.783 171.488 873.171 170.552 871.995 170.552C870.939 170.552 870.243 171.32 870.243 172.82C870.243 174.308 870.939 175.088 871.995 175.088ZM876.762 176V169.652H877.938L877.986 170.912H878.058C878.43 170.012 879.27 169.556 880.206 169.556C881.502 169.556 882.474 170.288 882.474 172.232V176H881.238V172.484C881.238 171.188 880.77 170.576 879.762 170.576C878.67 170.576 877.986 171.44 877.986 172.532V176H876.762ZM886.305 176.108C884.757 176.108 883.713 174.944 883.713 172.82C883.713 170.696 884.757 169.544 886.305 169.544C887.373 169.544 888.165 170.084 888.465 170.9H888.537L888.585 169.652H889.773V176H888.537V174.74H888.465C888.165 175.556 887.373 176.108 886.305 176.108ZM886.737 175.088C887.913 175.088 888.525 174.164 888.525 173.18V172.46C888.525 171.488 887.913 170.552 886.737 170.552C885.681 170.552 884.985 171.32 884.985 172.82C884.985 174.308 885.681 175.088 886.737 175.088ZM893.966 178.124C892.442 178.124 891.47 177.428 891.338 176.3H892.538C892.634 176.864 893.186 177.212 893.99 177.212C895.13 177.212 895.742 176.756 895.742 175.58V174.344H895.658C895.37 175.112 894.59 175.628 893.582 175.628C892.034 175.628 891.026 174.524 891.026 172.592C891.026 170.648 892.058 169.544 893.594 169.544C894.602 169.544 895.37 170.06 895.658 170.828H895.742L895.766 169.652H896.966V175.412C896.966 177.404 895.754 178.124 893.966 178.124ZM894.002 174.668C895.106 174.668 895.718 173.804 895.742 172.964L895.73 172.196C895.718 171.368 895.13 170.516 894.014 170.516C892.958 170.516 892.298 171.272 892.298 172.592C892.298 173.936 892.97 174.668 894.002 174.668ZM901.223 176.108C899.315 176.108 898.151 174.812 898.151 172.856C898.151 170.852 899.315 169.556 901.175 169.556C903.263 169.556 904.271 171.08 904.079 173.072H899.375C899.399 174.38 900.119 175.124 901.223 175.124C902.075 175.124 902.711 174.704 902.867 174.044H904.043C903.875 175.292 902.723 176.108 901.223 176.108ZM901.163 170.528C900.167 170.528 899.495 171.164 899.399 172.196H902.867C902.831 171.02 902.099 170.528 901.163 170.528ZM909.91 176C908.866 176 908.542 175.532 908.542 174.68V170.66H907.342V169.652H908.542V167.816L909.778 167.672V169.652H911.182V170.66H909.778V174.452C909.778 174.872 909.922 174.98 910.318 174.98H911.182V176H909.91ZM912.411 176V169.652H913.515L913.575 170.78H913.635C913.911 169.964 914.631 169.568 915.471 169.568C915.615 169.568 915.735 169.58 915.843 169.592V170.756C915.747 170.744 915.603 170.744 915.459 170.744C914.331 170.744 913.695 171.332 913.635 172.376V176H912.411ZM918.895 176.108C917.347 176.108 916.303 174.944 916.303 172.82C916.303 170.696 917.347 169.544 918.895 169.544C919.963 169.544 920.755 170.084 921.055 170.9H921.127L921.175 169.652H922.363V176H921.127V174.74H921.055C920.755 175.556 919.963 176.108 918.895 176.108ZM919.327 175.088C920.503 175.088 921.115 174.164 921.115 173.18V172.46C921.115 171.488 920.503 170.552 919.327 170.552C918.271 170.552 917.575 171.32 917.575 172.82C917.575 174.308 918.271 175.088 919.327 175.088ZM924.094 176V169.652H925.27L925.318 170.912H925.39C925.762 170.012 926.602 169.556 927.538 169.556C928.834 169.556 929.806 170.288 929.806 172.232V176H928.57V172.484C928.57 171.188 928.102 170.576 927.094 170.576C926.002 170.576 925.318 171.44 925.318 172.532V176H924.094ZM933.841 176.12C932.101 176.12 931.129 175.268 931.129 174.008H932.353C932.353 174.872 932.989 175.244 933.877 175.244C934.789 175.244 935.269 174.896 935.269 174.308C935.269 173.6 934.813 173.432 933.745 173.276C932.305 173.072 931.309 172.736 931.309 171.44C931.309 170.228 932.329 169.532 933.865 169.532C935.425 169.532 936.373 170.288 936.397 171.524H935.185C935.173 170.756 934.657 170.408 933.841 170.408C933.001 170.408 932.545 170.78 932.545 171.32C932.545 171.944 933.025 172.136 934.105 172.28C935.425 172.46 936.529 172.748 936.529 174.2C936.529 175.496 935.497 176.12 933.841 176.12ZM940.153 176.108C938.605 176.108 937.561 174.944 937.561 172.82C937.561 170.696 938.605 169.544 940.153 169.544C941.221 169.544 942.013 170.084 942.313 170.9H942.385L942.433 169.652H943.621V176H942.385V174.74H942.313C942.013 175.556 941.221 176.108 940.153 176.108ZM940.585 175.088C941.761 175.088 942.373 174.164 942.373 173.18V172.46C942.373 171.488 941.761 170.552 940.585 170.552C939.529 170.552 938.833 171.32 938.833 172.82C938.833 174.308 939.529 175.088 940.585 175.088ZM947.957 176.108C946.097 176.108 944.873 174.8 944.873 172.832C944.873 170.864 946.097 169.556 948.005 169.556C949.541 169.556 950.669 170.48 950.765 171.848H949.565C949.421 171.02 948.785 170.588 947.969 170.588C946.793 170.588 946.133 171.488 946.133 172.844C946.133 174.272 946.853 175.076 947.957 175.076C948.881 175.076 949.493 174.536 949.589 173.732H950.789C950.693 175.172 949.541 176.108 947.957 176.108ZM953.856 176C952.812 176 952.488 175.532 952.488 174.68V170.66H951.288V169.652H952.488V167.816L953.724 167.672V169.652H955.128V170.66H953.724V174.452C953.724 174.872 953.868 174.98 954.264 174.98H955.128V176H953.856ZM956.356 168.68V167.252H957.592V168.68H956.356ZM956.356 176V169.652H957.592V176H956.356ZM961.985 176.108C960.125 176.108 958.877 174.836 958.877 172.844C958.877 170.888 960.065 169.556 961.985 169.556C963.833 169.556 965.081 170.816 965.081 172.832C965.081 174.776 963.893 176.108 961.985 176.108ZM961.985 175.076C963.089 175.076 963.821 174.272 963.821 172.832C963.821 171.404 963.125 170.576 961.985 170.576C960.881 170.576 960.137 171.38 960.137 172.844C960.137 174.26 960.857 175.076 961.985 175.076ZM966.376 176V169.652H967.552L967.6 170.912H967.672C968.044 170.012 968.884 169.556 969.82 169.556C971.116 169.556 972.088 170.288 972.088 172.232V176H970.852V172.484C970.852 171.188 970.384 170.576 969.376 170.576C968.284 170.576 967.6 171.44 967.6 172.532V176H966.376ZM976.123 176.12C974.383 176.12 973.411 175.268 973.411 174.008H974.635C974.635 174.872 975.271 175.244 976.159 175.244C977.071 175.244 977.551 174.896 977.551 174.308C977.551 173.6 977.095 173.432 976.027 173.276C974.587 173.072 973.591 172.736 973.591 171.44C973.591 170.228 974.611 169.532 976.147 169.532C977.707 169.532 978.655 170.288 978.679 171.524H977.467C977.455 170.756 976.939 170.408 976.123 170.408C975.283 170.408 974.827 170.78 974.827 171.32C974.827 171.944 975.307 172.136 976.387 172.28C977.707 172.46 978.811 172.748 978.811 174.2C978.811 175.496 977.779 176.12 976.123 176.12Z" fill="white" style="fill:white;fill-opacity:1;"/>
<rect x="703.5" y="304" width="138" height="32" rx="8" fill="url(#paint8_linear_183_4275)" style=""/>
<rect x="704" y="304.5" width="137" height="31" rx="7.5" stroke="white" stroke-opacity="0.1" style="stroke:white;stroke-opacity:0.1;"/>
<g opacity="0.7">
<path fill-rule="evenodd" clip-rule="evenodd" d="M719.5 313.6C719.076 313.6 718.669 313.769 718.369 314.069C718.068 314.369 717.9 314.776 717.9 315.2V326.4L720.7 324.8L723.5 326.4L726.3 324.8L729.1 326.4V315.2C729.1 314.776 728.931 314.369 728.631 314.069C728.331 313.769 727.924 313.6 727.5 313.6H719.5ZM721.5 316C721.182 316 720.876 316.126 720.651 316.351C720.426 316.576 720.3 316.882 720.3 317.2C720.3 317.518 720.426 317.823 720.651 318.049C720.876 318.274 721.182 318.4 721.5 318.4C721.818 318.4 722.123 318.274 722.348 318.049C722.573 317.823 722.7 317.518 722.7 317.2C722.7 316.882 722.573 316.576 722.348 316.351C722.123 316.126 721.818 316 721.5 316ZM726.466 316.234C726.315 316.084 726.112 316 725.9 316C725.688 316 725.484 316.084 725.334 316.234L720.534 321.034C720.458 321.108 720.397 321.196 720.355 321.294C720.313 321.392 720.291 321.497 720.29 321.603C720.289 321.709 720.309 321.814 720.35 321.913C720.39 322.011 720.449 322.1 720.524 322.175C720.599 322.251 720.689 322.31 720.787 322.35C720.885 322.39 720.991 322.411 721.097 322.41C721.203 322.409 721.308 322.387 721.406 322.345C721.503 322.303 721.592 322.242 721.666 322.166L726.466 317.366C726.615 317.216 726.7 317.012 726.7 316.8C726.7 316.588 726.615 316.384 726.466 316.234ZM725.5 320C725.182 320 724.876 320.126 724.651 320.351C724.426 320.576 724.3 320.882 724.3 321.2C724.3 321.518 724.426 321.823 724.651 322.049C724.876 322.274 725.182 322.4 725.5 322.4C725.818 322.4 726.123 322.274 726.348 322.049C726.573 321.823 726.7 321.518 726.7 321.2C726.7 320.882 726.573 320.576 726.348 320.351C726.123 320.126 725.818 320 725.5 320Z" fill="white" style="fill:white;fill-opacity:1;"/>
</g>
<path opacity="0.7" d="M739.536 324L742.644 315.252H744.48L747.588 324H746.22L745.5 321.96H741.624L740.904 324H739.536ZM741.936 320.94H745.176L744.216 318.24L743.604 316.452H743.532L742.92 318.24L741.936 320.94ZM750.575 324.108C749.027 324.108 747.983 322.944 747.983 320.82C747.983 318.696 749.027 317.544 750.575 317.544C751.643 317.544 752.435 318.084 752.735 318.9H752.807V315.252H754.043V324H752.855L752.807 322.74H752.735C752.435 323.556 751.643 324.108 750.575 324.108ZM751.007 323.088C752.183 323.088 752.795 322.164 752.795 321.18V320.46C752.795 319.488 752.183 318.552 751.007 318.552C749.951 318.552 749.255 319.32 749.255 320.82C749.255 322.308 749.951 323.088 751.007 323.088ZM757.934 324.108C756.386 324.108 755.342 322.944 755.342 320.82C755.342 318.696 756.386 317.544 757.934 317.544C759.002 317.544 759.794 318.084 760.094 318.9H760.166V315.252H761.402V324H760.214L760.166 322.74H760.094C759.794 323.556 759.002 324.108 757.934 324.108ZM758.366 323.088C759.542 323.088 760.154 322.164 760.154 321.18V320.46C760.154 319.488 759.542 318.552 758.366 318.552C757.31 318.552 756.614 319.32 756.614 320.82C756.614 322.308 757.31 323.088 758.366 323.088ZM768.181 324.12C766.441 324.12 765.469 323.268 765.469 322.008H766.693C766.693 322.872 767.329 323.244 768.217 323.244C769.129 323.244 769.609 322.896 769.609 322.308C769.609 321.6 769.153 321.432 768.085 321.276C766.645 321.072 765.649 320.736 765.649 319.44C765.649 318.228 766.669 317.532 768.205 317.532C769.765 317.532 770.713 318.288 770.737 319.524H769.525C769.513 318.756 768.997 318.408 768.181 318.408C767.341 318.408 766.885 318.78 766.885 319.32C766.885 319.944 767.365 320.136 768.445 320.28C769.765 320.46 770.869 320.748 770.869 322.2C770.869 323.496 769.837 324.12 768.181 324.12ZM774.493 324.108C772.945 324.108 771.901 322.944 771.901 320.82C771.901 318.696 772.945 317.544 774.493 317.544C775.561 317.544 776.353 318.084 776.653 318.9H776.725L776.773 317.652H777.961V324H776.725V322.74H776.653C776.353 323.556 775.561 324.108 774.493 324.108ZM774.925 323.088C776.101 323.088 776.713 322.164 776.713 321.18V320.46C776.713 319.488 776.101 318.552 774.925 318.552C773.869 318.552 773.173 319.32 773.173 320.82C773.173 322.308 773.869 323.088 774.925 323.088ZM779.692 324V315.252H780.928V324H779.692ZM785.285 324.108C783.377 324.108 782.213 322.812 782.213 320.856C782.213 318.852 783.377 317.556 785.237 317.556C787.325 317.556 788.333 319.08 788.141 321.072H783.437C783.461 322.38 784.181 323.124 785.285 323.124C786.137 323.124 786.773 322.704 786.929 322.044H788.105C787.937 323.292 786.785 324.108 785.285 324.108ZM785.225 318.528C784.229 318.528 783.557 319.164 783.461 320.196H786.929C786.893 319.02 786.161 318.528 785.225 318.528ZM791.841 324.12C790.101 324.12 789.129 323.268 789.129 322.008H790.353C790.353 322.872 790.989 323.244 791.877 323.244C792.789 323.244 793.269 322.896 793.269 322.308C793.269 321.6 792.813 321.432 791.745 321.276C790.305 321.072 789.309 320.736 789.309 319.44C789.309 318.228 790.329 317.532 791.865 317.532C793.425 317.532 794.373 318.288 794.397 319.524H793.185C793.173 318.756 792.657 318.408 791.841 318.408C791.001 318.408 790.545 318.78 790.545 319.32C790.545 319.944 791.025 320.136 792.105 320.28C793.425 320.46 794.529 320.748 794.529 322.2C794.529 323.496 793.497 324.12 791.841 324.12ZM800.43 324C799.386 324 799.062 323.532 799.062 322.68V318.66H797.862V317.652H799.062V315.816L800.298 315.672V317.652H801.702V318.66H800.298V322.452C800.298 322.872 800.442 322.98 800.838 322.98H801.702V324H800.43ZM804.915 324.108C803.367 324.108 802.323 322.944 802.323 320.82C802.323 318.696 803.367 317.544 804.915 317.544C805.983 317.544 806.775 318.084 807.075 318.9H807.147L807.195 317.652H808.383V324H807.147V322.74H807.075C806.775 323.556 805.983 324.108 804.915 324.108ZM805.347 323.088C806.523 323.088 807.135 322.164 807.135 321.18V320.46C807.135 319.488 806.523 318.552 805.347 318.552C804.291 318.552 803.595 319.32 803.595 320.82C803.595 322.308 804.291 323.088 805.347 323.088ZM809.214 324L811.686 320.724L809.466 317.652H810.93L812.502 319.872H812.562L814.11 317.652H815.514L813.354 320.688L815.754 324H814.302L812.526 321.516H812.454L810.606 324H809.214ZM818.895 324.108C816.987 324.108 815.823 322.812 815.823 320.856C815.823 318.852 816.987 317.556 818.847 317.556C820.935 317.556 821.943 319.08 821.751 321.072H817.047C817.071 322.38 817.791 323.124 818.895 323.124C819.747 323.124 820.383 322.704 820.539 322.044H821.715C821.547 323.292 820.395 324.108 818.895 324.108ZM818.835 318.528C817.839 318.528 817.167 319.164 817.071 320.196H820.539C820.503 319.02 819.771 318.528 818.835 318.528ZM825.451 324.12C823.711 324.12 822.739 323.268 822.739 322.008H823.963C823.963 322.872 824.599 323.244 825.487 323.244C826.399 323.244 826.879 322.896 826.879 322.308C826.879 321.6 826.423 321.432 825.355 321.276C823.915 321.072 822.919 320.736 822.919 319.44C822.919 318.228 823.939 317.532 825.475 317.532C827.035 317.532 827.983 318.288 828.007 319.524H826.795C826.783 318.756 826.267 318.408 825.451 318.408C824.611 318.408 824.155 318.78 824.155 319.32C824.155 319.944 824.635 320.136 825.715 320.28C827.035 320.46 828.139 320.748 828.139 322.2C828.139 323.496 827.107 324.12 825.451 324.12Z" fill="white" style="fill:white;fill-opacity:1;"/>
<g style="mix-blend-mode:plus-lighter" filter="url(#filter2_f_183_4275)">
<path d="M1289.5 520L861.5 191.55L861.5 150.679L1289.5 -180L1289.5 520Z" fill="url(#paint9_linear_183_4275)" style=""/>
</g>
<defs>
<filter id="filter0_i_183_4275" x="1039.5" y="69" width="114" height="56" filterUnits="userSpaceOnUse" color-interpolation-filters="sRGB">
<feFlood flood-opacity="0" result="BackgroundImageFix"/>
<feBlend mode="normal" in="SourceGraphic" in2="BackgroundImageFix" result="shape"/>
<feColorMatrix in="SourceAlpha" type="matrix" values="0 0 0 0 0 0 0 0 0 0 0 0 0 0 0 0 0 0 127 0" result="hardAlpha"/>
<feMorphology radius="4" operator="erode" in="SourceAlpha" result="effect1_innerShadow_183_4275"/>
<feOffset/>
<feGaussianBlur stdDeviation="2"/>
<feComposite in2="hardAlpha" operator="arithmetic" k2="-1" k3="1"/>
<feColorMatrix type="matrix" values="0 0 0 0 0.382822 0 0 0 0 0.0971779 0 0 0 0 0.170798 0 0 0 0.2 0"/>
<feBlend mode="normal" in2="shape" result="effect1_innerShadow_183_4275"/>
</filter>
<filter id="filter1_d_183_4275" x="1056.96" y="85.728" width="77.874" height="32.384" filterUnits="userSpaceOnUse" color-interpolation-filters="sRGB">
<feFlood flood-opacity="0" result="BackgroundImageFix"/>
<feColorMatrix in="SourceAlpha" type="matrix" values="0 0 0 0 0 0 0 0 0 0 0 0 0 0 0 0 0 0 127 0" result="hardAlpha"/>
<feOffset dy="4"/>
<feGaussianBlur stdDeviation="2"/>
<feComposite in2="hardAlpha" operator="out"/>
<feColorMatrix type="matrix" values="0 0 0 0 0.0585366 0 0 0 0 0.0585366 0 0 0 0 0.181463 0 0 0 1 0"/>
<feBlend mode="normal" in2="BackgroundImageFix" result="effect1_dropShadow_183_4275"/>
<feBlend mode="normal" in="SourceGraphic" in2="effect1_dropShadow_183_4275" result="shape"/>
</filter>
<filter id="filter2_f_183_4275" x="661.5" y="-380" width="828" height="1100" filterUnits="userSpaceOnUse" color-interpolation-filters="sRGB">
<feFlood flood-opacity="0" result="BackgroundImageFix"/>
<feBlend mode="normal" in="SourceGraphic" in2="BackgroundImageFix" result="shape"/>
<feGaussianBlur stdDeviation="100" result="effect1_foregroundBlur_183_4275"/>
</filter>
<linearGradient id="paint0_linear_183_4275" x1="969.669" y1="98.2308" x2="1290.75" y2="98.2308" gradientUnits="userSpaceOnUse">
<stop stop-color="white" stop-opacity="0.05" style="stop-color:white;stop-opacity:0.05;"/>
<stop offset="1" stop-color="white" stop-opacity="0" style="stop-color:none;stop-opacity:0;"/>
</linearGradient>
<linearGradient id="paint1_linear_183_4275" x1="980.269" y1="335.17" x2="980.269" y2="656.254" gradientUnits="userSpaceOnUse">
<stop stop-color="white" stop-opacity="0.05" style="stop-color:white;stop-opacity:0.05;"/>
<stop offset="1" stop-color="white" stop-opacity="0" style="stop-color:none;stop-opacity:0;"/>
</linearGradient>
<linearGradient id="paint2_linear_183_4275" x1="1096.5" y1="69" x2="1096.5" y2="125" gradientUnits="userSpaceOnUse">
<stop stop-color="#0A0A1F" style="stop-color:#0A0A1F;stop-color:color(display-p3 0.0402 0.0402 0.1206);stop-opacity:1;"/>
<stop offset="1" stop-color="#22227A" style="stop-color:#22227A;stop-color:color(display-p3 0.1333 0.1333 0.4784);stop-opacity:1;"/>
</linearGradient>
<linearGradient id="paint3_linear_183_4275" x1="1096.5" y1="73" x2="1096.5" y2="121" gradientUnits="userSpaceOnUse">
<stop stop-color="#1F0A0F" stop-opacity="0.1" style="stop-color:#1F0A0F;stop-color:color(display-p3 0.1216 0.0392 0.0588);stop-opacity:0.1;"/>
<stop offset="0.0001" stop-color="#0F0507" stop-opacity="0.1" style="stop-color:#0F0507;stop-color:color(display-p3 0.0605 0.0195 0.0293);stop-opacity:0.1;"/>
<stop offset="1" stop-color="#0F0507" stop-opacity="0" style="stop-color:none;stop-opacity:0;"/>
</linearGradient>
<linearGradient id="paint4_linear_183_4275" x1="1096.5" y1="73" x2="1096.5" y2="121" gradientUnits="userSpaceOnUse">
<stop stop-color="#29297A" style="stop-color:#29297A;stop-color:color(display-p3 0.1600 0.1600 0.4800);stop-opacity:1;"/>
<stop offset="1" stop-color="#9E9EFA" style="stop-color:#9E9EFA;stop-color:color(display-p3 0.6180 0.6180 0.9820);stop-opacity:1;"/>
</linearGradient>
<linearGradient id="paint5_linear_183_4275" x1="1077.5" y1="73" x2="1077.5" y2="109" gradientUnits="userSpaceOnUse">
<stop stop-color="white" stop-opacity="0.05" style="stop-color:white;stop-opacity:0.05;"/>
<stop offset="1" stop-color="white" stop-opacity="0" style="stop-color:none;stop-opacity:0;"/>
</linearGradient>
<linearGradient id="paint6_linear_183_4275" x1="1115.5" y1="73" x2="1115.5" y2="109" gradientUnits="userSpaceOnUse">
<stop stop-color="white" stop-opacity="0.05" style="stop-color:white;stop-opacity:0.05;"/>
<stop offset="1" stop-color="white" stop-opacity="0" style="stop-color:none;stop-opacity:0;"/>
</linearGradient>
<linearGradient id="paint7_linear_183_4275" x1="906.5" y1="156" x2="906.5" y2="188" gradientUnits="userSpaceOnUse">
<stop stop-color="white" stop-opacity="0.1" style="stop-color:white;stop-opacity:0.1;"/>
<stop offset="1" stop-color="white" stop-opacity="0.05" style="stop-color:white;stop-opacity:0.05;"/>
</linearGradient>
<linearGradient id="paint8_linear_183_4275" x1="772.5" y1="304" x2="772.5" y2="336" gradientUnits="userSpaceOnUse">
<stop stop-color="#7272D5" style="stop-color:#7272D5;stop-color:color(display-p3 0.4454 0.4454 0.8346);stop-opacity:1;"/>
<stop offset="1" stop-color="#9191DE" style="stop-color:#9191DE;stop-color:color(display-p3 0.5685 0.5685 0.8715);stop-opacity:1;"/>
</linearGradient>
<linearGradient id="paint9_linear_183_4275" x1="1289.5" y1="170" x2="861.5" y2="170" gradientUnits="userSpaceOnUse">
<stop stop-color="#B3B3E5" stop-opacity="0.08" style="stop-color:#B3B3E5;stop-color:color(display-p3 0.7006 0.7006 0.8994);stop-opacity:0.08;"/>
<stop offset="1" stop-color="#B3B3E5" stop-opacity="0.2" style="stop-color:#B3B3E5;stop-color:color(display-p3 0.7020 0.7020 0.8980);stop-opacity:0.2;"/>
</linearGradient>
<clipPath id="clip0_183_4275">
<rect width="16.6667" height="16.6667" fill="white" style="fill:white;fill-opacity:1;" transform="translate(1031.17 212.667)"/>
</clipPath>
<clipPath id="clip1_183_4275">
<rect width="13.3333" height="13.3333" fill="white" style="fill:white;fill-opacity:1;" transform="translate(872.833 42.3333)"/>
</clipPath>
<clipPath id="clip2_183_4275">
<rect width="16" height="16" fill="white" style="fill:white;fill-opacity:1;" transform="translate(781.5 254)"/>
</clipPath>
<clipPath id="clip3_183_4275">
<rect width="16.6667" height="16.6667" fill="white" style="fill:white;fill-opacity:1;" transform="translate(683.667 86.6667)"/>
</clipPath>
</defs>
</svg>
