<svg width="1290" height="765" viewBox="0 0 1290 765" fill="none" xmlns="http://www.w3.org/2000/svg">
<line x1="1039.5" y1="234" x2="1039.5" y2="310" stroke="white" stroke-opacity="0.15" style="stroke:white;stroke-opacity:0.15;"/>
<path d="M1539.54 517.564L1347.87 312.04C1346.36 310.418 1344.24 309.497 1342.02 309.497L1043.84 309.474C1041.72 309.474 1039.68 310.317 1038.18 311.817L780.437 569.564C778.937 571.064 778.094 573.099 778.094 575.221L778.094 745.978C778.094 748.225 779.039 750.369 780.699 751.885L956.135 912.119C957.7 913.548 958.634 915.541 958.732 917.658L963.842 1028.6C964.052 1033.16 960.413 1036.97 955.85 1036.97L0.499969 1036.97" stroke="white" stroke-opacity="0.15" style="stroke:white;stroke-opacity:0.15;"/>
<circle cx="781" cy="570" r="10" fill="#2F2F41" style="fill:#2F2F41;fill:color(display-p3 0.1848 0.1848 0.2552);fill-opacity:1;"/>
<circle cx="781" cy="570" r="8.33333" fill="#454554" style="fill:#454554;fill:color(display-p3 0.2700 0.2700 0.3300);fill-opacity:1;"/>
<g clip-path="url(#clip0_283_12259)">
<path d="M781 565.139V574.861V565.139Z" fill="#0A0A1F" style="fill:#0A0A1F;fill:color(display-p3 0.0402 0.0402 0.1206);fill-opacity:1;"/>
<path d="M781 565.139V574.861" stroke="#0A0A1F" style="stroke:#0A0A1F;stroke:color(display-p3 0.0402 0.0402 0.1206);stroke-opacity:1;" stroke-width="2" stroke-linecap="round" stroke-linejoin="round"/>
<path d="M776.139 570H785.861H776.139Z" fill="#0A0A1F" style="fill:#0A0A1F;fill:color(display-p3 0.0402 0.0402 0.1206);fill-opacity:1;"/>
<path d="M776.139 570H785.861" stroke="#0A0A1F" style="stroke:#0A0A1F;stroke:color(display-p3 0.0402 0.0402 0.1206);stroke-opacity:1;" stroke-width="2" stroke-linecap="round" stroke-linejoin="round"/>
</g>
<circle cx="1040" cy="310" r="10" fill="#2F2F41" style="fill:#2F2F41;fill:color(display-p3 0.1848 0.1848 0.2552);fill-opacity:1;"/>
<circle cx="1040" cy="310" r="8.33333" fill="#454554" style="fill:#454554;fill:color(display-p3 0.2700 0.2700 0.3300);fill-opacity:1;"/>
<g clip-path="url(#clip1_283_12259)">
<path d="M1035.14 307.778H1044.86H1035.14Z" fill="#0A0A1F" style="fill:#0A0A1F;fill:color(display-p3 0.0402 0.0402 0.1206);fill-opacity:1;"/>
<path d="M1035.14 307.778H1044.86" stroke="#0A0A1F" style="stroke:#0A0A1F;stroke:color(display-p3 0.0402 0.0402 0.1206);stroke-opacity:1;" stroke-width="2" stroke-linecap="round" stroke-linejoin="round"/>
<path d="M1035.14 312.223H1044.86H1035.14Z" fill="#0A0A1F" style="fill:#0A0A1F;fill:color(display-p3 0.0402 0.0402 0.1206);fill-opacity:1;"/>
<path d="M1035.14 312.223H1044.86" stroke="#0A0A1F" style="stroke:#0A0A1F;stroke:color(display-p3 0.0402 0.0402 0.1206);stroke-opacity:1;" stroke-width="2" stroke-linecap="round" stroke-linejoin="round"/>
</g>
<path d="M1290 146V195.846V226C1290 230.418 1286.42 234 1282 234H1021.1C1019 234 1016.99 233.178 1015.5 231.71L926.986 144.855C924.429 142.346 926.205 138 929.787 138H1282C1286.42 138 1290 141.582 1290 146Z" fill="url(#paint0_linear_283_12259)" stroke="white" stroke-opacity="0.15" style="stroke:white;stroke-opacity:0.15;"/>
<path d="M1256.86 748.91L972.153 744L941.999 744C937.581 744 933.999 740.418 933.999 736L933.999 475.1C933.999 473.004 934.822 470.993 936.289 469.497L1028.82 375.198C1029.58 374.432 1030.6 374 1031.68 374L1257 374C1261.42 374 1265 377.582 1265 382L1265 740.912C1265 745.384 1261.33 748.988 1256.86 748.91Z" fill="url(#paint1_linear_283_12259)" stroke="white" stroke-opacity="0.1" style="stroke:white;stroke-opacity:0.1;"/>
<path d="M879.526 46.5V130C879.526 134.418 875.944 138 871.526 138H696.039C693.815 138 692.018 139.814 692.039 142.038L692.84 226.076C692.882 230.464 696.451 234 700.84 234H781.831C786.249 234 789.831 237.582 789.831 242V445.007C789.831 447.234 788.902 449.36 787.269 450.874L650.801 577.367C649.322 578.738 647.379 579.5 645.363 579.5H171" stroke="white" stroke-opacity="0.15" style="stroke:white;stroke-opacity:0.15;"/>
<circle cx="880" cy="138" r="10" fill="#2F2F41" style="fill:#2F2F41;fill:color(display-p3 0.1848 0.1848 0.2552);fill-opacity:1;"/>
<circle cx="880" cy="138" r="8.33333" fill="#454554" style="fill:#454554;fill:color(display-p3 0.2700 0.2700 0.3300);fill-opacity:1;"/>
<g clip-path="url(#clip2_283_12259)">
<path d="M880 135.222C880.307 135.222 880.556 134.973 880.556 134.667C880.556 134.36 880.307 134.111 880 134.111C879.693 134.111 879.444 134.36 879.444 134.667C879.444 134.973 879.693 135.222 880 135.222Z" fill="#0A0A1F" stroke="#0A0A1F" style="fill:#0A0A1F;fill:color(display-p3 0.0402 0.0402 0.1206);fill-opacity:1;stroke:#0A0A1F;stroke:color(display-p3 0.0402 0.0402 0.1206);stroke-opacity:1;" stroke-width="2" stroke-linecap="round" stroke-linejoin="round"/>
<path d="M880 141.889C880.307 141.889 880.556 141.64 880.556 141.333C880.556 141.026 880.307 140.778 880 140.778C879.693 140.778 879.444 141.026 879.444 141.333C879.444 141.64 879.693 141.889 880 141.889Z" fill="#0A0A1F" stroke="#0A0A1F" style="fill:#0A0A1F;fill:color(display-p3 0.0402 0.0402 0.1206);fill-opacity:1;stroke:#0A0A1F;stroke:color(display-p3 0.0402 0.0402 0.1206);stroke-opacity:1;" stroke-width="2" stroke-linecap="round" stroke-linejoin="round"/>
<path d="M876.111 138H883.889H876.111Z" fill="#0A0A1F" style="fill:#0A0A1F;fill:color(display-p3 0.0402 0.0402 0.1206);fill-opacity:1;"/>
<path d="M876.111 138H883.889" stroke="#0A0A1F" style="stroke:#0A0A1F;stroke:color(display-p3 0.0402 0.0402 0.1206);stroke-opacity:1;" stroke-width="2" stroke-linecap="round" stroke-linejoin="round"/>
</g>
<circle cx="790" cy="351" r="10" fill="#2F2F41" style="fill:#2F2F41;fill:color(display-p3 0.1848 0.1848 0.2552);fill-opacity:1;"/>
<circle cx="790" cy="351" r="8.33333" fill="#454554" style="fill:#454554;fill:color(display-p3 0.2700 0.2700 0.3300);fill-opacity:1;"/>
<g clip-path="url(#clip3_283_12259)">
<path d="M794 347L786 355L794 347Z" fill="#0A0A1F" style="fill:#0A0A1F;fill:color(display-p3 0.0402 0.0402 0.1206);fill-opacity:1;"/>
<path d="M794 347L786 355" stroke="#0A0A1F" style="stroke:#0A0A1F;stroke:color(display-p3 0.0402 0.0402 0.1206);stroke-opacity:1;" stroke-width="2" stroke-linecap="round" stroke-linejoin="round"/>
<path d="M786 347L794 355L786 347Z" fill="#0A0A1F" style="fill:#0A0A1F;fill:color(display-p3 0.0402 0.0402 0.1206);fill-opacity:1;"/>
<path d="M786 347L794 355" stroke="#0A0A1F" style="stroke:#0A0A1F;stroke:color(display-p3 0.0402 0.0402 0.1206);stroke-opacity:1;" stroke-width="2" stroke-linecap="round" stroke-linejoin="round"/>
</g>
<circle cx="690" cy="184" r="10" fill="#2F2F41" style="fill:#2F2F41;fill:color(display-p3 0.1848 0.1848 0.2552);fill-opacity:1;"/>
<circle cx="690" cy="184" r="8.33333" fill="#454554" style="fill:#454554;fill:color(display-p3 0.2700 0.2700 0.3300);fill-opacity:1;"/>
<g clip-path="url(#clip4_283_12259)">
<path d="M685.139 184H694.861H685.139Z" fill="#0A0A1F" style="fill:#0A0A1F;fill:color(display-p3 0.0402 0.0402 0.1206);fill-opacity:1;"/>
<path d="M685.139 184H694.861" stroke="#0A0A1F" style="stroke:#0A0A1F;stroke:color(display-p3 0.0402 0.0402 0.1206);stroke-opacity:1;" stroke-width="2" stroke-linecap="round" stroke-linejoin="round"/>
</g>
<defs>
<linearGradient id="paint0_linear_283_12259" x1="970.169" y1="187.231" x2="1291.25" y2="187.231" gradientUnits="userSpaceOnUse">
<stop stop-color="white" stop-opacity="0.05" style="stop-color:white;stop-opacity:0.05;"/>
<stop offset="1" stop-color="white" stop-opacity="0" style="stop-color:none;stop-opacity:0;"/>
</linearGradient>
<linearGradient id="paint1_linear_283_12259" x1="980.769" y1="424.17" x2="980.769" y2="745.254" gradientUnits="userSpaceOnUse">
<stop stop-color="white" stop-opacity="0.05" style="stop-color:white;stop-opacity:0.05;"/>
<stop offset="1" stop-color="white" stop-opacity="0" style="stop-color:none;stop-opacity:0;"/>
</linearGradient>
<clipPath id="clip0_283_12259">
<rect width="16.6667" height="16.6667" fill="white" style="fill:white;fill-opacity:1;" transform="translate(772.667 561.667)"/>
</clipPath>
<clipPath id="clip1_283_12259">
<rect width="16.6667" height="16.6667" fill="white" style="fill:white;fill-opacity:1;" transform="translate(1031.67 301.667)"/>
</clipPath>
<clipPath id="clip2_283_12259">
<rect width="13.3333" height="13.3333" fill="white" style="fill:white;fill-opacity:1;" transform="translate(873.333 131.333)"/>
</clipPath>
<clipPath id="clip3_283_12259">
<rect width="16" height="16" fill="white" style="fill:white;fill-opacity:1;" transform="translate(782 343)"/>
</clipPath>
<clipPath id="clip4_283_12259">
<rect width="16.6667" height="16.6667" fill="white" style="fill:white;fill-opacity:1;" transform="translate(681.667 175.667)"/>
</clipPath>
</defs>
</svg>
