<svg width="877" height="225" viewBox="0 0 877 225" fill="none" xmlns="http://www.w3.org/2000/svg">
<mask id="path-1-outside-1_223_15468" maskUnits="userSpaceOnUse" x="-2" y="-1" width="880" height="227" fill="black">
<rect fill="white" x="-2" y="-1" width="880" height="227"/>
<path d="M76.8328 222L0.332813 3.29999H52.5328L95.1328 138.3L107.133 177.6H109.233L120.933 138.3L163.833 3.29999H216.033L139.833 222H76.8328ZM240.802 222V3.29999H287.602V222H240.802ZM411.645 224.7C352.545 224.7 321.345 195.9 321.345 153.3H368.745C369.345 174.9 382.245 189 413.445 189C437.445 189 453.045 180.3 453.045 162.9C453.045 141.9 441.645 137.4 402.045 130.8C351.645 123 325.845 105.3 325.845 67.2C325.845 26.1 358.245 0.599989 411.345 0.599989C462.645 0.599989 494.745 26.7 495.045 65.7H447.945C447.045 44.4 430.545 36 409.845 36C387.945 36 374.445 45.6 374.445 61.2C374.445 81.3 389.445 84 427.245 90.3C463.845 96 501.645 105.6 501.645 158.4C501.645 197.7 471.345 224.7 411.645 224.7ZM574.341 222V43.8H509.841V3.29999H686.841V43.8H620.841V222H574.341ZM664.765 222L737.665 3.29999H803.665L876.565 222H827.965L813.265 177H728.065L713.365 222H664.765ZM738.865 141.3H802.465L783.865 85.5L771.565 45.6H769.765L757.465 85.5L738.865 141.3Z"/>
</mask>
<path d="M76.8328 222L0.332813 3.29999H52.5328L95.1328 138.3L107.133 177.6H109.233L120.933 138.3L163.833 3.29999H216.033L139.833 222H76.8328ZM240.802 222V3.29999H287.602V222H240.802ZM411.645 224.7C352.545 224.7 321.345 195.9 321.345 153.3H368.745C369.345 174.9 382.245 189 413.445 189C437.445 189 453.045 180.3 453.045 162.9C453.045 141.9 441.645 137.4 402.045 130.8C351.645 123 325.845 105.3 325.845 67.2C325.845 26.1 358.245 0.599989 411.345 0.599989C462.645 0.599989 494.745 26.7 495.045 65.7H447.945C447.045 44.4 430.545 36 409.845 36C387.945 36 374.445 45.6 374.445 61.2C374.445 81.3 389.445 84 427.245 90.3C463.845 96 501.645 105.6 501.645 158.4C501.645 197.7 471.345 224.7 411.645 224.7ZM574.341 222V43.8H509.841V3.29999H686.841V43.8H620.841V222H574.341ZM664.765 222L737.665 3.29999H803.665L876.565 222H827.965L813.265 177H728.065L713.365 222H664.765ZM738.865 141.3H802.465L783.865 85.5L771.565 45.6H769.765L757.465 85.5L738.865 141.3Z" fill="url(#paint0_linear_223_15468)" style=""/>
<path d="M76.8328 222L75.8889 222.33L76.1232 223H76.8328V222ZM0.332813 3.29999V2.29999H-1.07639L-0.611106 3.63017L0.332813 3.29999ZM52.5328 3.29999L53.4865 2.99906L53.2659 2.29999H52.5328V3.29999ZM95.1328 138.3L96.0893 138.008L96.0865 137.999L95.1328 138.3ZM107.133 177.6L106.176 177.892L106.393 178.6H107.133V177.6ZM109.233 177.6V178.6H109.978L110.191 177.885L109.233 177.6ZM120.933 138.3L119.98 137.997L119.977 138.006L119.974 138.015L120.933 138.3ZM163.833 3.29999V2.29999H163.101L162.88 2.99714L163.833 3.29999ZM216.033 3.29999L216.977 3.62901L217.44 2.29999H216.033V3.29999ZM139.833 222V223H140.543L140.777 222.329L139.833 222ZM77.7767 221.67L1.27673 2.96981L-0.611106 3.63017L75.8889 222.33L77.7767 221.67ZM0.332813 4.29999H52.5328V2.29999H0.332813V4.29999ZM51.5792 3.60092L94.1792 138.601L96.0865 137.999L53.4865 2.99906L51.5792 3.60092ZM94.1764 138.592L106.176 177.892L108.089 177.308L96.0892 138.008L94.1764 138.592ZM107.133 178.6H109.233V176.6H107.133V178.6ZM110.191 177.885L121.891 138.585L119.974 138.015L108.274 177.315L110.191 177.885ZM121.886 138.603L164.786 3.60284L162.88 2.99714L119.98 137.997L121.886 138.603ZM163.833 4.29999H216.033V2.29999H163.833V4.29999ZM215.089 2.97097L138.888 221.671L140.777 222.329L216.977 3.62901L215.089 2.97097ZM139.833 221H76.8328V223H139.833V221ZM240.802 222H239.802V223H240.802V222ZM240.802 3.29999V2.29999H239.802V3.29999H240.802ZM287.602 3.29999H288.602V2.29999H287.602V3.29999ZM287.602 222V223H288.602V222H287.602ZM241.802 222V3.29999H239.802V222H241.802ZM240.802 4.29999H287.602V2.29999H240.802V4.29999ZM286.602 3.29999V222H288.602V3.29999H286.602ZM287.602 221H240.802V223H287.602V221ZM321.345 153.3V152.3H320.345V153.3H321.345ZM368.745 153.3L369.744 153.272L369.717 152.3H368.745V153.3ZM402.045 130.8L402.209 129.814L402.197 129.812L402.045 130.8ZM495.045 65.7V66.7H496.052L496.045 65.6923L495.045 65.7ZM447.945 65.7L446.945 65.7422L446.986 66.7H447.945V65.7ZM427.245 90.3L427.08 91.2864L427.091 91.2881L427.245 90.3ZM411.645 223.7C382.245 223.7 359.922 216.536 344.968 204.204C330.037 191.89 322.345 174.337 322.345 153.3H320.345C320.345 174.863 328.252 193.01 343.696 205.746C359.117 218.464 381.944 225.7 411.645 225.7V223.7ZM321.345 154.3H368.745V152.3H321.345V154.3ZM367.745 153.328C368.05 164.323 371.496 173.549 378.966 180.006C386.414 186.447 397.711 190 413.445 190V188C397.978 188 387.225 184.503 380.274 178.494C373.343 172.501 370.039 163.877 369.744 153.272L367.745 153.328ZM413.445 190C425.541 190 435.655 187.811 442.778 183.321C449.957 178.795 454.045 171.957 454.045 162.9H452.045C452.045 171.243 448.332 177.455 441.711 181.629C435.034 185.839 425.348 188 413.445 188V190ZM454.045 162.9C454.045 157.569 453.323 153.182 451.544 149.517C449.756 145.831 446.94 142.957 442.9 140.587C434.91 135.901 421.959 133.105 402.209 129.814L401.88 131.786C421.73 135.095 434.279 137.849 441.889 142.313C445.649 144.518 448.158 147.119 449.745 150.39C451.341 153.68 452.045 157.731 452.045 162.9H454.045ZM402.197 129.812C377.054 125.921 358.213 119.58 345.668 109.581C333.186 99.6318 326.845 85.9864 326.845 67.2H324.845C324.845 86.5136 331.403 100.768 344.421 111.144C357.376 121.47 376.635 127.879 401.892 131.788L402.197 129.812ZM326.845 67.2C326.845 46.9402 334.816 30.5879 349.298 19.2755C363.807 7.941 384.941 1.59999 411.345 1.59999V-0.400011C384.648 -0.400011 363.032 6.00898 348.066 17.6994C333.073 29.412 324.845 46.3598 324.845 67.2H326.845ZM411.345 1.59999C436.835 1.59999 457.447 8.08483 471.701 19.3106C485.933 30.5195 493.897 46.5063 494.045 65.7077L496.045 65.6923C495.892 45.8937 487.656 29.3305 472.938 17.7394C458.242 6.16515 437.154 -0.400011 411.345 -0.400011V1.59999ZM495.045 64.7H447.945V66.7H495.045V64.7ZM448.944 65.6578C448.482 54.7206 443.992 46.997 436.892 42.0424C429.838 37.12 420.309 35 409.845 35V37C420.08 37 429.152 39.08 435.747 43.6826C442.297 48.253 446.508 55.3794 446.945 65.7422L448.944 65.6578ZM409.845 35C398.765 35 389.688 37.4261 383.352 41.9353C376.98 46.4701 373.445 53.0717 373.445 61.2H375.445C375.445 53.7283 378.659 47.7299 384.512 43.5647C390.401 39.3739 399.024 37 409.845 37V35ZM373.445 61.2C373.445 66.3473 374.405 70.4872 376.532 73.8726C378.661 77.2603 381.892 79.7889 386.245 81.8304C394.876 85.8785 408.246 88.1474 427.08 91.2864L427.409 89.3136C408.443 86.1526 395.413 83.9215 387.094 80.0196C382.972 78.0861 380.091 75.7772 378.226 72.8086C376.359 69.8378 375.445 66.1027 375.445 61.2H373.445ZM427.091 91.2881C445.4 94.1396 463.785 97.9426 477.6 107.51C491.322 117.012 500.645 132.285 500.645 158.4H502.645C502.645 131.715 493.067 115.788 478.739 105.865C464.504 96.0073 445.689 92.1604 427.398 89.3119L427.091 91.2881ZM500.645 158.4C500.645 177.768 493.192 194.04 478.419 205.497C463.615 216.979 441.359 223.7 411.645 223.7V225.7C441.63 225.7 464.374 218.921 479.645 207.078C494.947 195.21 502.645 178.332 502.645 158.4H500.645ZM574.341 222H573.341V223H574.341V222ZM574.341 43.8H575.341V42.8H574.341V43.8ZM509.841 43.8H508.841V44.8H509.841V43.8ZM509.841 3.29999V2.29999H508.841V3.29999H509.841ZM686.841 3.29999H687.841V2.29999H686.841V3.29999ZM686.841 43.8V44.8H687.841V43.8H686.841ZM620.841 43.8V42.8H619.841V43.8H620.841ZM620.841 222V223H621.841V222H620.841ZM575.341 222V43.8H573.341V222H575.341ZM574.341 42.8H509.841V44.8H574.341V42.8ZM510.841 43.8V3.29999H508.841V43.8H510.841ZM509.841 4.29999H686.841V2.29999H509.841V4.29999ZM685.841 3.29999V43.8H687.841V3.29999H685.841ZM686.841 42.8H620.841V44.8H686.841V42.8ZM619.841 43.8V222H621.841V43.8H619.841ZM620.841 221H574.341V223H620.841V221ZM664.765 222L663.816 221.684L663.377 223H664.765V222ZM737.665 3.29999V2.29999H736.944L736.716 2.98376L737.665 3.29999ZM803.665 3.29999L804.614 2.98376L804.386 2.29999H803.665V3.29999ZM876.565 222V223H877.952L877.514 221.684L876.565 222ZM827.965 222L827.014 222.311L827.24 223H827.965V222ZM813.265 177L814.215 176.689L813.99 176H813.265V177ZM728.065 177V176H727.34L727.114 176.689L728.065 177ZM713.365 222V223H714.09L714.315 222.311L713.365 222ZM738.865 141.3L737.916 140.984L737.477 142.3H738.865V141.3ZM802.465 141.3V142.3H803.852L803.414 140.984L802.465 141.3ZM783.865 85.5L782.909 85.7946L782.913 85.8054L782.916 85.8162L783.865 85.5ZM771.565 45.6L772.52 45.3054L772.303 44.6H771.565V45.6ZM769.765 45.6V44.6H769.027L768.809 45.3054L769.765 45.6ZM757.465 85.5L758.414 85.8162L758.417 85.8054L758.42 85.7946L757.465 85.5ZM665.714 222.316L738.614 3.61622L736.716 2.98376L663.816 221.684L665.714 222.316ZM737.665 4.29999H803.665V2.29999H737.665V4.29999ZM802.716 3.61622L875.616 222.316L877.514 221.684L804.614 2.98376L802.716 3.61622ZM876.565 221H827.965V223H876.565V221ZM828.915 221.689L814.215 176.689L812.314 177.311L827.014 222.311L828.915 221.689ZM813.265 176H728.065V178H813.265V176ZM727.114 176.689L712.414 221.689L714.315 222.311L729.015 177.311L727.114 176.689ZM713.365 221H664.765V223H713.365V221ZM738.865 142.3H802.465V140.3H738.865V142.3ZM803.414 140.984L784.814 85.1838L782.916 85.8162L801.516 141.616L803.414 140.984ZM784.82 85.2054L772.52 45.3054L770.609 45.8946L782.909 85.7946L784.82 85.2054ZM771.565 44.6H769.765V46.6H771.565V44.6ZM768.809 45.3054L756.509 85.2054L758.42 85.7946L770.72 45.8946L768.809 45.3054ZM756.516 85.1838L737.916 140.984L739.814 141.616L758.414 85.8162L756.516 85.1838Z" fill="url(#paint1_linear_223_15468)" style="" mask="url(#path-1-outside-1_223_15468)"/>
<defs>
<linearGradient id="paint0_linear_223_15468" x1="438" y1="-23" x2="438" y2="277" gradientUnits="userSpaceOnUse">
<stop stop-color="white" stop-opacity="0.1" style="stop-color:white;stop-opacity:0.1;"/>
<stop offset="1" stop-color="white" stop-opacity="0" style="stop-color:none;stop-opacity:0;"/>
</linearGradient>
<linearGradient id="paint1_linear_223_15468" x1="438" y1="-23" x2="438" y2="277" gradientUnits="userSpaceOnUse">
<stop stop-color="white" stop-opacity="0.2" style="stop-color:white;stop-opacity:0.2;"/>
<stop offset="1" stop-color="white" stop-opacity="0.2" style="stop-color:white;stop-opacity:0.2;"/>
<stop offset="1" stop-color="white" stop-opacity="0.2" style="stop-color:white;stop-opacity:0.2;"/>
</linearGradient>
</defs>
</svg>
