<svg width="1440" height="600" viewBox="0 0 1440 600" fill="none" xmlns="http://www.w3.org/2000/svg">
<path d="M1689.54 -312.436L1497.87 -517.959C1496.35 -519.582 1494.24 -520.503 1492.02 -520.503L1193.84 -520.526C1191.72 -520.526 1189.68 -519.683 1188.18 -518.183L930.435 -260.436C928.934 -258.936 928.091 -256.901 928.091 -254.779L928.091 -84.0218C928.091 -81.7744 929.037 -79.6305 930.696 -78.1149L1106.13 82.1193C1107.7 83.5487 1108.63 85.5408 1108.73 87.6582L1114.08 203.819C1114.17 205.844 1115.03 207.757 1116.48 209.174L1198.5 289.304C1200.04 290.809 1200.91 292.872 1200.91 295.027V364" stroke="white" stroke-opacity="0.2" style="stroke:white;stroke-opacity:0.2;"/>
<path d="M-249.241 -312.436L-57.5675 -517.959C-56.0545 -519.582 -53.9358 -520.503 -51.7175 -520.503L246.461 -520.526C248.583 -520.526 250.618 -519.683 252.119 -518.183L509.866 -260.436C511.366 -258.936 512.209 -256.901 512.209 -254.779L512.209 -91.732C512.209 -89.5488 511.317 -87.4604 509.739 -85.9513L334.037 82.1379C332.552 83.5589 331.67 85.4971 331.576 87.5505L326.221 203.819C326.127 205.844 325.269 207.757 323.82 209.174L241.797 289.304C240.256 290.809 239.387 292.872 239.387 295.027L239.387 364" stroke="white" stroke-opacity="0.2" style="stroke:white;stroke-opacity:0.2;"/>
<rect x="215" y="356" width="1010" height="432" rx="16" fill="#1F0A0F" style="fill:#1F0A0F;fill:color(display-p3 0.1206 0.0402 0.0593);fill-opacity:1;"/>
<rect x="215.5" y="356.5" width="1009" height="431" rx="15.5" stroke="white" stroke-opacity="0.2" style="stroke:white;stroke-opacity:0.2;"/>
<rect x="793" y="448" width="360" height="216" rx="16" fill="#2E0F17" style="fill:#2E0F17;fill:color(display-p3 0.1794 0.0598 0.0891);fill-opacity:1;"/>
<rect x="793.5" y="448.5" width="359" height="215" rx="15.5" stroke="white" stroke-opacity="0.2" style="stroke:white;stroke-opacity:0.2;"/>
<path d="M822.6 486.126C819.548 486.126 817.518 484.166 817.518 480.89C817.518 477.614 819.548 475.668 822.6 475.668C825.666 475.668 827.682 477.628 827.682 480.89C827.682 484.18 825.652 486.126 822.6 486.126ZM822.6 484.53C824.546 484.53 825.778 483.242 825.778 480.89C825.778 478.538 824.532 477.264 822.6 477.264C820.668 477.264 819.436 478.538 819.436 480.89C819.436 483.256 820.668 484.53 822.6 484.53ZM830.787 486L828.183 478.538H830.073L831.375 482.822L831.837 484.53H831.893L832.355 482.836L833.657 478.538H835.547L832.957 486H830.787ZM839.45 486.126C837.168 486.126 835.796 484.614 835.796 482.318C835.796 479.938 837.196 478.412 839.38 478.412C841.914 478.412 843.118 480.232 842.866 482.654H837.518C837.518 484.012 838.288 484.782 839.45 484.782C840.346 484.782 841.004 484.348 841.172 483.676H842.838C842.628 485.146 841.27 486.126 839.45 486.126ZM839.38 479.756C838.33 479.756 837.644 480.414 837.532 481.478H841.158C841.102 480.302 840.36 479.756 839.38 479.756ZM844.311 486V478.552H845.893L845.977 479.798H846.033C846.369 478.846 847.181 478.454 848.147 478.454H848.581V480.106C848.469 480.106 848.301 480.092 848.119 480.092C846.761 480.092 846.117 480.764 846.061 481.926V486H844.311ZM852.081 486.126C850.289 486.126 849.085 484.796 849.085 482.276C849.085 479.742 850.289 478.412 852.081 478.412C853.285 478.412 854.181 479.014 854.545 479.924H854.643V475.794H856.393L856.379 486H854.699L854.643 484.614H854.545C854.181 485.524 853.285 486.126 852.081 486.126ZM852.739 484.698C853.985 484.698 854.615 483.704 854.615 482.654V481.884C854.615 480.82 853.985 479.84 852.739 479.84C851.619 479.84 850.863 480.638 850.863 482.276C850.863 483.9 851.619 484.698 852.739 484.698ZM860.874 486.126C859.166 486.126 858.2 485.104 858.2 483.172V478.552H859.95V482.71C859.95 483.984 860.412 484.698 861.546 484.698C862.68 484.698 863.38 483.788 863.38 482.612V478.552H865.13V486H863.45L863.38 484.558H863.296C862.918 485.566 861.98 486.126 860.874 486.126ZM870.048 486.126C867.766 486.126 866.394 484.614 866.394 482.318C866.394 479.938 867.794 478.412 869.978 478.412C872.512 478.412 873.716 480.232 873.464 482.654H868.116C868.116 484.012 868.886 484.782 870.048 484.782C870.944 484.782 871.602 484.348 871.77 483.676H873.436C873.226 485.146 871.868 486.126 870.048 486.126ZM869.978 479.756C868.928 479.756 868.242 480.414 868.13 481.478H871.756C871.7 480.302 870.958 479.756 869.978 479.756ZM882.256 486.14C881.066 486.14 880.17 485.524 879.806 484.628H879.708L879.638 486H877.958V475.794H879.708V479.924H879.806C880.17 479.014 881.066 478.412 882.256 478.412C884.062 478.412 885.266 479.742 885.266 482.276C885.266 484.796 884.062 486.14 882.256 486.14ZM881.612 484.712C882.732 484.712 883.488 483.914 883.488 482.276C883.488 480.638 882.732 479.84 881.612 479.84C880.352 479.84 879.722 480.834 879.722 481.884V482.668C879.722 483.718 880.352 484.712 881.612 484.712ZM886.68 477.502V475.794H888.43V477.502H886.68ZM886.68 486V478.552H888.43V486H886.68ZM890.317 486V475.794H892.067V486H890.317ZM893.954 486V475.794H895.704V486H893.954ZM900.488 486.14C898.374 486.14 897.184 485.146 897.198 483.662H898.92C898.934 484.558 899.606 484.936 900.53 484.936C901.482 484.936 901.986 484.586 901.986 483.984C901.986 483.228 901.482 483.088 900.32 482.92C898.64 482.682 897.394 482.29 897.394 480.708C897.394 479.21 898.654 478.412 900.53 478.412C902.406 478.412 903.568 479.28 903.596 480.75H901.888C901.874 479.994 901.328 479.616 900.488 479.616C899.606 479.616 899.144 479.98 899.144 480.526C899.144 481.17 899.676 481.38 900.852 481.534C902.406 481.744 903.75 482.066 903.75 483.816C903.75 485.398 902.504 486.14 900.488 486.14Z" fill="white" style="fill:white;fill-opacity:1;"/>
<path d="M834.302 576V565.794H838.88C840.84 565.794 841.918 566.844 841.918 568.412C841.918 569.49 841.372 570.414 840.238 570.694V570.75C841.526 571.002 842.184 571.982 842.184 573.158C842.184 574.95 840.882 576 838.754 576H834.302ZM835.478 570.302H838.796C840.07 570.302 840.728 569.602 840.728 568.566C840.728 567.418 839.902 566.76 838.628 566.76H835.478V570.302ZM835.478 575.034H838.656C840.21 575.034 840.966 574.236 840.966 573.088C840.966 571.912 840.182 571.24 838.852 571.24H835.478V575.034ZM843.867 567.432V565.794H845.001V567.432H843.867ZM843.867 576V568.65H845.001V576H843.867ZM847.134 576V565.794H848.268V576H847.134ZM850.402 576V565.794H851.536V576H850.402ZM856.315 576.14C854.355 576.14 853.263 575.16 853.263 573.704H854.397C854.397 574.81 855.195 575.3 856.343 575.3C857.519 575.3 858.149 574.852 858.149 574.068C858.149 573.172 857.589 572.934 856.245 572.738C854.551 572.486 853.473 572.094 853.473 570.652C853.473 569.322 854.607 568.51 856.315 568.51C858.093 568.51 859.143 569.378 859.157 570.806H858.051C858.023 569.784 857.351 569.35 856.301 569.35C855.209 569.35 854.607 569.826 854.607 570.54C854.607 571.352 855.223 571.618 856.553 571.8C858.093 572.01 859.311 572.36 859.311 573.97C859.311 575.412 858.149 576.14 856.315 576.14ZM866.057 576V568.426H863.677V567.558H864.055C865.413 567.558 865.987 566.9 866.085 565.906H867.191V576H866.057Z" fill="white" style="fill:white;fill-opacity:1;"/>
<path d="M834.056 537V528.252H835.664L840.188 535.26H840.272L840.2 532.332V528.252H841.472V537H839.936L835.412 530.076H835.34L835.388 532.8V537H834.056ZM845.551 537.108C844.003 537.108 842.959 535.944 842.959 533.82C842.959 531.696 844.003 530.544 845.551 530.544C846.619 530.544 847.411 531.084 847.711 531.9H847.783L847.831 530.652H849.019V537H847.783V535.74H847.711C847.411 536.556 846.619 537.108 845.551 537.108ZM845.983 536.088C847.159 536.088 847.771 535.164 847.771 534.18V533.46C847.771 532.488 847.159 531.552 845.983 531.552C844.927 531.552 844.231 532.32 844.231 533.82C844.231 535.308 844.927 536.088 845.983 536.088ZM850.751 537V530.652H851.927L851.975 531.912H852.047C852.407 531.012 853.223 530.556 854.147 530.556C855.083 530.556 855.875 530.964 856.199 532.044H856.295C856.643 531.06 857.507 530.556 858.527 530.556C859.787 530.556 860.723 531.288 860.723 533.232V537H859.499V533.484C859.499 532.188 859.055 531.576 858.059 531.576C857.015 531.576 856.355 532.44 856.355 533.532V537H855.119V533.484C855.119 532.188 854.675 531.576 853.691 531.576C852.635 531.576 851.975 532.44 851.975 533.532V537H850.751ZM865.027 537.108C863.119 537.108 861.955 535.812 861.955 533.856C861.955 531.852 863.119 530.556 864.979 530.556C867.067 530.556 868.075 532.08 867.883 534.072H863.179C863.203 535.38 863.923 536.124 865.027 536.124C865.879 536.124 866.515 535.704 866.671 535.044H867.847C867.679 536.292 866.527 537.108 865.027 537.108ZM864.967 531.528C863.971 531.528 863.299 532.164 863.203 533.196H866.671C866.635 532.02 865.903 531.528 864.967 531.528Z" fill="#A7A0A0" style="fill:#A7A0A0;fill:color(display-p3 0.6541 0.6259 0.6290);fill-opacity:1;"/>
<path d="M925.018 577.19V576.112C922.75 575.958 921.686 574.642 921.644 572.822H922.876C922.918 574.124 923.562 575.006 925.018 575.146V571.226C923.016 570.834 921.882 570.218 921.882 568.482C921.882 566.872 923.044 565.808 925.018 565.696V564.604H925.872V565.696C927.79 565.864 928.868 566.984 928.896 568.636H927.692C927.65 567.474 926.964 566.816 925.872 566.662V570.204C927.636 570.526 929.218 570.988 929.218 573.256C929.218 574.866 928.042 575.986 925.872 576.112V577.19H925.018ZM923.114 568.328C923.114 569.378 923.66 569.728 925.018 570.036V566.634C923.8 566.732 923.114 567.376 923.114 568.328ZM927.986 573.368C927.986 572.192 927.412 571.744 925.872 571.394V575.16C927.146 575.062 927.986 574.474 927.986 573.368ZM932.743 576V568.426H930.363V567.558H930.741C932.099 567.558 932.673 566.9 932.771 565.906H933.877V576H932.743ZM935.873 578.17V577.526H936.055C936.489 577.484 936.629 577.176 936.629 576.728V576H936.097V574.74H937.259V576.798C937.259 577.75 936.867 578.114 936.167 578.156L935.873 578.17ZM942.178 576.126C940.148 576.126 938.832 574.838 938.832 572.92H939.952C939.938 574.236 940.82 575.118 942.192 575.118C943.676 575.118 944.516 574.138 944.516 572.71C944.516 571.17 943.606 570.26 942.22 570.26C941.184 570.26 940.428 570.778 940.106 571.506H939.042L939.266 565.906H945.202V566.9H940.26L940.106 570.33L940.176 570.358C940.61 569.714 941.464 569.294 942.444 569.294C944.418 569.294 945.692 570.666 945.692 572.668C945.692 574.74 944.32 576.126 942.178 576.126ZM950.546 576.126C948.362 576.126 946.948 574.278 946.948 570.946C946.948 567.572 948.39 565.794 950.546 565.794C952.702 565.794 954.102 567.628 954.102 570.946C954.102 574.32 952.66 576.126 950.546 576.126ZM950.532 575.146C952.058 575.146 952.954 573.788 952.954 570.946C952.954 568.118 952.058 566.76 950.532 566.76C948.992 566.76 948.096 568.104 948.096 570.946C948.096 573.788 948.992 575.146 950.532 575.146ZM958.749 576.126C956.565 576.126 955.151 574.278 955.151 570.946C955.151 567.572 956.593 565.794 958.749 565.794C960.905 565.794 962.305 567.628 962.305 570.946C962.305 574.32 960.863 576.126 958.749 576.126ZM958.735 575.146C960.261 575.146 961.157 573.788 961.157 570.946C961.157 568.118 960.261 566.76 958.735 566.76C957.195 566.76 956.299 568.104 956.299 570.946C956.299 573.788 957.195 575.146 958.735 575.146ZM963.648 576V574.74H964.81V576H963.648ZM969.741 576.126C967.557 576.126 966.143 574.278 966.143 570.946C966.143 567.572 967.585 565.794 969.741 565.794C971.897 565.794 973.297 567.628 973.297 570.946C973.297 574.32 971.855 576.126 969.741 576.126ZM969.727 575.146C971.253 575.146 972.149 573.788 972.149 570.946C972.149 568.118 971.253 566.76 969.727 566.76C968.187 566.76 967.291 568.104 967.291 570.946C967.291 573.788 968.187 575.146 969.727 575.146ZM977.944 576.126C975.76 576.126 974.346 574.278 974.346 570.946C974.346 567.572 975.788 565.794 977.944 565.794C980.1 565.794 981.5 567.628 981.5 570.946C981.5 574.32 980.058 576.126 977.944 576.126ZM977.93 575.146C979.456 575.146 980.352 573.788 980.352 570.946C980.352 568.118 979.456 566.76 977.93 566.76C976.39 566.76 975.494 568.104 975.494 570.946C975.494 573.788 976.39 575.146 977.93 575.146Z" fill="white" style="fill:white;fill-opacity:1;"/>
<path d="M1033.63 576V575.776C1033.63 571.954 1038.91 571.464 1038.91 568.72C1038.91 567.53 1038.1 566.774 1036.86 566.774C1035.58 566.774 1034.69 567.614 1034.75 568.958H1033.66C1033.59 567.04 1034.95 565.78 1036.93 565.78C1038.84 565.78 1040.08 566.942 1040.08 568.65C1040.08 571.786 1035.39 572.57 1035.02 574.992H1040.21V576H1033.63ZM1047.69 576.126C1045.88 576.126 1044.66 574.74 1044.66 572.318C1044.66 569.896 1045.88 568.524 1047.69 568.524C1048.97 568.524 1049.93 569.182 1050.29 570.176H1050.36V565.794H1051.49L1051.48 576H1050.4L1050.36 574.46H1050.29C1049.93 575.454 1048.97 576.126 1047.69 576.126ZM1048.06 575.174C1049.53 575.174 1050.35 573.998 1050.35 572.766V571.87C1050.35 570.638 1049.53 569.462 1048.06 569.462C1046.72 569.462 1045.82 570.456 1045.82 572.318C1045.82 574.166 1046.72 575.174 1048.06 575.174ZM1056.12 576.126C1054.31 576.126 1053.1 574.74 1053.1 572.318C1053.1 569.896 1054.31 568.524 1056.12 568.524C1057.41 568.524 1058.36 569.182 1058.72 570.176H1058.79L1058.84 568.65H1059.93V576H1058.79V574.46H1058.72C1058.36 575.454 1057.41 576.126 1056.12 576.126ZM1056.5 575.174C1057.97 575.174 1058.78 573.998 1058.78 572.766V571.87C1058.78 570.638 1057.97 569.462 1056.5 569.462C1055.15 569.462 1054.26 570.456 1054.26 572.318C1054.26 574.166 1055.15 575.174 1056.5 575.174ZM1061.43 578.338V577.4H1062.19C1062.88 577.4 1063.21 577.12 1063.46 576.504L1063.86 575.51L1060.93 568.65H1062.18L1064.02 573.396L1064.37 574.32H1064.43L1064.75 573.396L1066.5 568.65H1067.69L1064.53 576.784C1064.11 577.932 1063.46 578.338 1062.36 578.338H1061.43ZM1071.35 576.14C1069.39 576.14 1068.3 575.16 1068.3 573.704H1069.44C1069.44 574.81 1070.23 575.3 1071.38 575.3C1072.56 575.3 1073.19 574.852 1073.19 574.068C1073.19 573.172 1072.63 572.934 1071.28 572.738C1069.59 572.486 1068.51 572.094 1068.51 570.652C1068.51 569.322 1069.65 568.51 1071.35 568.51C1073.13 568.51 1074.18 569.378 1074.2 570.806H1073.09C1073.06 569.784 1072.39 569.35 1071.34 569.35C1070.25 569.35 1069.65 569.826 1069.65 570.54C1069.65 571.352 1070.26 571.618 1071.59 571.8C1073.13 572.01 1074.35 572.36 1074.35 573.97C1074.35 575.412 1073.19 576.14 1071.35 576.14ZM1081.81 576.126C1080 576.126 1078.79 574.74 1078.79 572.318C1078.79 569.896 1080 568.524 1081.81 568.524C1083.1 568.524 1084.05 569.182 1084.41 570.176H1084.48L1084.53 568.65H1085.62V576H1084.48V574.46H1084.41C1084.05 575.454 1083.1 576.126 1081.81 576.126ZM1082.19 575.174C1083.66 575.174 1084.47 573.998 1084.47 572.766V571.87C1084.47 570.638 1083.66 569.462 1082.19 569.462C1080.84 569.462 1079.95 570.456 1079.95 572.318C1079.95 574.166 1080.84 575.174 1082.19 575.174ZM1090.51 578.478C1088.85 578.478 1087.74 577.708 1087.57 576.434H1088.68C1088.8 577.162 1089.5 577.61 1090.54 577.61C1091.93 577.61 1092.75 577.064 1092.75 575.524V573.998H1092.67C1092.33 574.95 1091.39 575.58 1090.16 575.58C1088.36 575.58 1087.18 574.264 1087.18 572.052C1087.18 569.84 1088.38 568.524 1090.19 568.524C1091.41 568.524 1092.33 569.154 1092.67 570.092H1092.75L1092.78 568.65H1093.87V575.426C1093.87 577.652 1092.51 578.478 1090.51 578.478ZM1090.53 574.684C1091.94 574.684 1092.74 573.564 1092.75 572.5V571.604C1092.74 570.54 1091.97 569.434 1090.54 569.434C1089.2 569.434 1088.34 570.428 1088.34 572.052C1088.34 573.732 1089.21 574.684 1090.53 574.684ZM1098.94 576.126C1096.81 576.126 1095.38 574.628 1095.38 572.346C1095.38 570.092 1096.77 568.538 1098.94 568.538C1101.05 568.538 1102.47 570.022 1102.47 572.332C1102.47 574.572 1101.1 576.126 1098.94 576.126ZM1098.94 575.146C1100.37 575.146 1101.32 574.11 1101.32 572.332C1101.32 570.568 1100.41 569.49 1098.94 569.49C1097.51 569.49 1096.55 570.54 1096.55 572.346C1096.55 574.082 1097.47 575.146 1098.94 575.146Z" fill="white" style="fill:white;fill-opacity:1;"/>
<path d="M921.036 537L924.144 528.252H925.98L929.088 537H927.72L927 534.96H923.124L922.404 537H921.036ZM923.436 533.94H926.676L925.716 531.24L925.104 529.452H925.032L924.42 531.24L923.436 533.94ZM929.973 537V530.652H931.149L931.197 531.912H931.269C931.629 531.012 932.445 530.556 933.369 530.556C934.305 530.556 935.097 530.964 935.421 532.044H935.517C935.865 531.06 936.729 530.556 937.749 530.556C939.009 530.556 939.945 531.288 939.945 533.232V537H938.721V533.484C938.721 532.188 938.277 531.576 937.281 531.576C936.237 531.576 935.577 532.44 935.577 533.532V537H934.341V533.484C934.341 532.188 933.897 531.576 932.913 531.576C931.857 531.576 931.197 532.44 931.197 533.532V537H929.973ZM944.286 537.108C942.426 537.108 941.178 535.836 941.178 533.844C941.178 531.888 942.366 530.556 944.286 530.556C946.134 530.556 947.382 531.816 947.382 533.832C947.382 535.776 946.194 537.108 944.286 537.108ZM944.286 536.076C945.39 536.076 946.122 535.272 946.122 533.832C946.122 532.404 945.426 531.576 944.286 531.576C943.182 531.576 942.438 532.38 942.438 533.844C942.438 535.26 943.158 536.076 944.286 536.076ZM950.896 537.108C949.457 537.108 948.617 536.244 948.617 534.564V530.652H949.853V534.252C949.853 535.428 950.285 536.076 951.353 536.076C952.397 536.076 953.093 535.248 953.093 534.084V530.652H954.329V537H953.153L953.093 535.716H953.021C952.709 536.592 951.881 537.108 950.896 537.108ZM956.001 537V530.652H957.177L957.225 531.912H957.297C957.669 531.012 958.509 530.556 959.445 530.556C960.741 530.556 961.713 531.288 961.713 533.232V537H960.477V533.484C960.477 532.188 960.009 531.576 959.001 531.576C957.909 531.576 957.225 532.44 957.225 533.532V537H956.001ZM965.043 537C963.999 537 963.675 536.532 963.675 535.68V531.66H962.475V530.652H963.675V528.816L964.911 528.672V530.652H966.315V531.66H964.911V535.452C964.911 535.872 965.055 535.98 965.451 535.98H966.315V537H965.043Z" fill="#A7A0A0" style="fill:#A7A0A0;fill:color(display-p3 0.6541 0.6259 0.6290);fill-opacity:1;"/>
<path d="M1034.06 537V528.252H1037.6C1040.12 528.252 1041.56 530.004 1041.56 532.632C1041.56 535.26 1040.12 537 1037.6 537H1034.06ZM1035.36 535.872H1037.4C1039.1 535.872 1040.21 534.828 1040.21 532.608C1040.21 530.388 1039.08 529.38 1037.4 529.38H1035.36V535.872ZM1045.11 537.108C1043.67 537.108 1042.83 536.244 1042.83 534.564V530.652H1044.06V534.252C1044.06 535.428 1044.5 536.076 1045.56 536.076C1046.61 536.076 1047.3 535.248 1047.3 534.084V530.652H1048.54V537H1047.36L1047.3 535.716H1047.23C1046.92 536.592 1046.09 537.108 1045.11 537.108ZM1052.8 537.108C1050.9 537.108 1049.73 535.812 1049.73 533.856C1049.73 531.852 1050.9 530.556 1052.76 530.556C1054.84 530.556 1055.85 532.08 1055.66 534.072H1050.96C1050.98 535.38 1051.7 536.124 1052.8 536.124C1053.66 536.124 1054.29 535.704 1054.45 535.044H1055.62C1055.46 536.292 1054.3 537.108 1052.8 537.108ZM1052.74 531.528C1051.75 531.528 1051.08 532.164 1050.98 533.196H1054.45C1054.41 532.02 1053.68 531.528 1052.74 531.528Z" fill="#A7A0A0" style="fill:#A7A0A0;fill:color(display-p3 0.6541 0.6259 0.6290);fill-opacity:1;"/>
<line x1="817" y1="551.5" x2="1129" y2="551.5" stroke="white" stroke-opacity="0.2" style="stroke:white;stroke-opacity:0.2;"/>
<line x1="817" y1="591.5" x2="1129" y2="591.5" stroke="white" stroke-opacity="0.1" style="stroke:white;stroke-opacity:0.1;"/>
<rect x="287" y="448" width="490" height="216" rx="16" fill="#2E0F17" style="fill:#2E0F17;fill:color(display-p3 0.1794 0.0598 0.0891);fill-opacity:1;"/>
<rect x="287.5" y="448.5" width="489" height="215" rx="15.5" stroke="white" stroke-opacity="0.2" style="stroke:white;stroke-opacity:0.2;"/>
<path d="M311.028 486L314.542 475.794H317.146L320.66 486H318.742L317.972 483.76H313.716L312.96 486H311.028ZM314.164 482.332H317.538L316.53 479.462L315.886 477.488H315.816L315.158 479.462L314.164 482.332ZM324.741 486.126C322.529 486.126 321.087 484.6 321.087 482.276C321.087 479.952 322.543 478.412 324.797 478.412C326.673 478.412 328.017 479.546 328.115 481.184H326.407C326.253 480.316 325.595 479.854 324.755 479.854C323.523 479.854 322.851 480.82 322.851 482.276C322.851 483.858 323.607 484.684 324.741 484.684C325.707 484.684 326.337 484.124 326.435 483.298H328.143C328.031 485.02 326.645 486.126 324.741 486.126ZM332.698 486.126C330.486 486.126 329.044 484.6 329.044 482.276C329.044 479.952 330.5 478.412 332.754 478.412C334.63 478.412 335.974 479.546 336.072 481.184H334.364C334.21 480.316 333.552 479.854 332.712 479.854C331.48 479.854 330.808 480.82 330.808 482.276C330.808 483.858 331.564 484.684 332.698 484.684C333.664 484.684 334.294 484.124 334.392 483.298H336.1C335.988 485.02 334.602 486.126 332.698 486.126ZM340.697 486.126C338.485 486.126 337.001 484.67 337.001 482.276C337.001 479.98 338.387 478.412 340.697 478.412C342.895 478.412 344.365 479.882 344.365 482.276C344.365 484.572 342.993 486.126 340.697 486.126ZM340.683 484.684C341.831 484.684 342.601 483.872 342.601 482.276C342.601 480.694 341.859 479.854 340.697 479.854C339.535 479.854 338.765 480.68 338.765 482.276C338.765 483.844 339.507 484.684 340.683 484.684ZM348.38 486.126C346.672 486.126 345.706 485.104 345.706 483.172V478.552H347.456V482.71C347.456 483.984 347.918 484.698 349.052 484.698C350.186 484.698 350.886 483.788 350.886 482.612V478.552H352.636V486H350.956L350.886 484.558H350.802C350.424 485.566 349.486 486.126 348.38 486.126ZM354.444 486V478.552H356.124L356.194 479.966H356.278C356.698 478.944 357.65 478.412 358.728 478.412C360.24 478.412 361.374 479.28 361.374 481.534V486H359.624V481.912C359.624 480.512 359.148 479.854 358.056 479.854C356.88 479.854 356.194 480.778 356.194 481.898V486H354.444ZM365.299 486C363.913 486 363.535 485.37 363.535 484.306V479.966H362.163V478.552H363.535V476.452L365.271 476.27V478.552H366.853V479.966H365.271V483.984C365.271 484.46 365.467 484.572 365.901 484.572H366.853V486H365.299ZM371.096 486.14C368.982 486.14 367.792 485.146 367.806 483.662H369.528C369.542 484.558 370.214 484.936 371.138 484.936C372.09 484.936 372.594 484.586 372.594 483.984C372.594 483.228 372.09 483.088 370.928 482.92C369.248 482.682 368.002 482.29 368.002 480.708C368.002 479.21 369.262 478.412 371.138 478.412C373.014 478.412 374.176 479.28 374.204 480.75H372.496C372.482 479.994 371.936 479.616 371.096 479.616C370.214 479.616 369.752 479.98 369.752 480.526C369.752 481.17 370.284 481.38 371.46 481.534C373.014 481.744 374.358 482.066 374.358 483.816C374.358 485.398 373.112 486.14 371.096 486.14Z" fill="white" style="fill:white;fill-opacity:1;"/>
<g filter="url(#filter0_i_1422_1242)">
<rect x="311" y="507" width="32" height="32" rx="6" fill="#F53D6C" style="fill:#F53D6C;fill:color(display-p3 0.9608 0.2392 0.4235);fill-opacity:1;"/>
<path d="M322.058 527L325.46 516.794H328.54L331.942 527H329.674L328.988 524.9H325.012L324.326 527H322.058ZM325.516 523.234H328.484L327.616 520.63L327.042 518.768H326.958L326.384 520.63L325.516 523.234Z" fill="white" style="fill:white;fill-opacity:1;"/>
</g>
<path d="M358.96 558.108C356.656 558.108 355.588 556.932 355.552 555.276H356.62C356.644 556.512 357.364 557.28 358.972 557.28C360.328 557.28 361.228 556.788 361.228 555.744C361.228 554.604 360.58 554.256 358.792 553.956C356.8 553.596 355.768 553.056 355.768 551.568C355.768 550.092 356.932 549.156 358.888 549.156C360.868 549.156 361.984 550.164 362.008 551.688H360.964C360.916 550.548 360.112 549.96 358.84 549.96C357.556 549.96 356.824 550.548 356.824 551.424C356.824 552.48 357.52 552.72 359.284 553.032C360.88 553.308 362.296 553.692 362.296 555.648C362.296 557.112 361.12 558.108 358.96 558.108ZM365.923 558.108C364.375 558.108 363.331 556.92 363.331 554.844C363.331 552.768 364.375 551.592 365.923 551.592C367.027 551.592 367.843 552.156 368.155 553.008H368.215L368.251 551.7H369.187V558H368.215V556.68H368.155C367.843 557.532 367.027 558.108 365.923 558.108ZM366.247 557.292C367.507 557.292 368.203 556.284 368.203 555.228V554.46C368.203 553.404 367.507 552.396 366.247 552.396C365.095 552.396 364.327 553.248 364.327 554.844C364.327 556.428 365.095 557.292 366.247 557.292ZM372.362 558L370.046 551.7H371.102L372.518 555.84L372.938 557.136H372.974L373.37 555.84L374.786 551.7H375.83L373.538 558H372.362ZM376.689 550.656V549.252H377.661V550.656H376.689ZM376.689 558V551.7H377.661V558H376.689ZM379.49 558V551.7H380.414L380.45 553.008H380.522C380.906 552.084 381.77 551.604 382.718 551.604C384.026 551.604 384.986 552.348 384.986 554.292V558H384.014V554.484C384.014 553.068 383.498 552.42 382.406 552.42C381.218 552.42 380.45 553.356 380.45 554.592V558H379.49ZM389.168 560.124C387.74 560.124 386.792 559.464 386.648 558.372H387.596C387.704 558.996 388.304 559.38 389.192 559.38C390.38 559.38 391.088 558.912 391.088 557.592V556.284H391.016C390.728 557.1 389.924 557.64 388.868 557.64C387.32 557.64 386.312 556.512 386.312 554.616C386.312 552.72 387.344 551.592 388.892 551.592C389.936 551.592 390.728 552.132 391.016 552.936H391.088L391.112 551.7H392.048V557.508C392.048 559.416 390.884 560.124 389.168 560.124ZM389.18 556.872C390.392 556.872 391.076 555.912 391.088 555V554.232C391.076 553.32 390.416 552.372 389.192 552.372C388.04 552.372 387.308 553.224 387.308 554.616C387.308 556.056 388.052 556.872 389.18 556.872ZM396.09 558.12C394.41 558.12 393.474 557.28 393.474 556.032H394.446C394.446 556.98 395.13 557.4 396.114 557.4C397.122 557.4 397.662 557.016 397.662 556.344C397.662 555.576 397.182 555.372 396.03 555.204C394.578 554.988 393.654 554.652 393.654 553.416C393.654 552.276 394.626 551.58 396.09 551.58C397.614 551.58 398.514 552.324 398.526 553.548H397.578C397.554 552.672 396.978 552.3 396.078 552.3C395.142 552.3 394.626 552.708 394.626 553.32C394.626 554.016 395.154 554.244 396.294 554.4C397.614 554.58 398.658 554.88 398.658 556.26C398.658 557.496 397.662 558.12 396.09 558.12Z" fill="#A7A0A0" style="fill:#A7A0A0;fill:color(display-p3 0.6541 0.6259 0.6290);fill-opacity:1;"/>
<path d="M535.444 559.02V558.096C533.5 557.964 532.588 556.836 532.552 555.276H533.608C533.644 556.392 534.196 557.148 535.444 557.268V553.908C533.728 553.572 532.756 553.044 532.756 551.556C532.756 550.176 533.752 549.264 535.444 549.168V548.232H536.176V549.168C537.82 549.312 538.744 550.272 538.768 551.688H537.736C537.7 550.692 537.112 550.128 536.176 549.996V553.032C537.688 553.308 539.044 553.704 539.044 555.648C539.044 557.028 538.036 557.988 536.176 558.096V559.02H535.444ZM533.812 551.424C533.812 552.324 534.28 552.624 535.444 552.888V549.972C534.4 550.056 533.812 550.608 533.812 551.424ZM537.988 555.744C537.988 554.736 537.496 554.352 536.176 554.052V557.28C537.268 557.196 537.988 556.692 537.988 555.744ZM543.229 558.096C541.201 558.096 540.193 556.668 540.193 554.076C540.193 550.752 541.249 549.24 543.349 549.24C544.945 549.24 545.929 550.104 546.061 551.46H545.125C545.005 550.584 544.309 550.092 543.349 550.092C541.585 550.092 541.189 551.652 541.165 553.872H541.225C541.489 552.96 542.341 552.372 543.493 552.372C545.077 552.372 546.157 553.488 546.157 555.204C546.157 557.004 544.957 558.096 543.229 558.096ZM543.253 557.244C544.405 557.244 545.161 556.428 545.161 555.168C545.161 553.908 544.405 553.128 543.277 553.128C542.053 553.128 541.321 554.04 541.321 555.24C541.321 556.488 542.101 557.244 543.253 557.244ZM547.139 559.86V559.308H547.295C547.667 559.272 547.787 559.008 547.787 558.624V558H547.331V556.92H548.327V558.684C548.327 559.5 547.991 559.812 547.391 559.848L547.139 559.86ZM552.555 558.108C550.683 558.108 549.471 556.524 549.471 553.668C549.471 550.776 550.707 549.252 552.555 549.252C554.403 549.252 555.603 550.824 555.603 553.668C555.603 556.56 554.367 558.108 552.555 558.108ZM552.543 557.268C553.851 557.268 554.619 556.104 554.619 553.668C554.619 551.244 553.851 550.08 552.543 550.08C551.223 550.08 550.455 551.232 550.455 553.668C550.455 556.104 551.223 557.268 552.543 557.268ZM559.587 558.108C557.715 558.108 556.503 556.524 556.503 553.668C556.503 550.776 557.739 549.252 559.587 549.252C561.435 549.252 562.635 550.824 562.635 553.668C562.635 556.56 561.399 558.108 559.587 558.108ZM559.575 557.268C560.883 557.268 561.651 556.104 561.651 553.668C561.651 551.244 560.883 550.08 559.575 550.08C558.255 550.08 557.487 551.232 557.487 553.668C557.487 556.104 558.255 557.268 559.575 557.268ZM566.618 558.108C564.746 558.108 563.534 556.524 563.534 553.668C563.534 550.776 564.77 549.252 566.618 549.252C568.466 549.252 569.666 550.824 569.666 553.668C569.666 556.56 568.43 558.108 566.618 558.108ZM566.606 557.268C567.914 557.268 568.682 556.104 568.682 553.668C568.682 551.244 567.914 550.08 566.606 550.08C565.286 550.08 564.518 551.232 564.518 553.668C564.518 556.104 565.286 557.268 566.606 557.268ZM570.817 558V556.92H571.813V558H570.817ZM574.96 558V551.508H572.92V550.764H573.244C574.408 550.764 574.9 550.2 574.984 549.348H575.932V558H574.96ZM580.715 558.108C578.975 558.108 577.847 557.004 577.847 555.36H578.807C578.795 556.488 579.551 557.244 580.727 557.244C581.999 557.244 582.719 556.404 582.719 555.18C582.719 553.86 581.939 553.08 580.751 553.08C579.863 553.08 579.215 553.524 578.939 554.148H578.027L578.219 549.348H583.307V550.2H579.071L578.939 553.14L578.999 553.164C579.371 552.612 580.103 552.252 580.943 552.252C582.635 552.252 583.727 553.428 583.727 555.144C583.727 556.92 582.551 558.108 580.715 558.108Z" fill="#A7A0A0" style="fill:#A7A0A0;fill:color(display-p3 0.6541 0.6259 0.6290);fill-opacity:1;"/>
<path d="M356.116 582V573.252H359.548C361.384 573.252 362.56 574.248 362.56 575.988C362.56 577.644 361.408 578.736 359.536 578.724H357.136V582H356.116ZM359.392 577.884C360.688 577.896 361.504 577.236 361.504 576.012C361.504 574.776 360.676 574.152 359.392 574.152H357.136V577.884H359.392ZM365.853 582.108C364.305 582.108 363.261 580.92 363.261 578.844C363.261 576.768 364.305 575.592 365.853 575.592C366.957 575.592 367.773 576.156 368.085 577.008H368.145L368.181 575.7H369.117V582H368.145V580.68H368.085C367.773 581.532 366.957 582.108 365.853 582.108ZM366.177 581.292C367.437 581.292 368.133 580.284 368.133 579.228V578.46C368.133 577.404 367.437 576.396 366.177 576.396C365.025 576.396 364.257 577.248 364.257 578.844C364.257 580.428 365.025 581.292 366.177 581.292ZM370.407 584.004V583.2H371.055C371.643 583.2 371.931 582.96 372.147 582.432L372.483 581.58L369.975 575.7H371.043L372.627 579.768L372.927 580.56H372.975L373.251 579.768L374.751 575.7H375.771L373.059 582.672C372.699 583.656 372.147 584.004 371.199 584.004H370.407ZM376.642 582V575.7H377.506L377.566 576.864H377.614C377.89 576.06 378.634 575.616 379.486 575.616C379.63 575.616 379.762 575.628 379.87 575.64V576.564C379.762 576.552 379.63 576.54 379.486 576.54C378.382 576.54 377.686 577.164 377.602 578.244V582H376.642ZM383.395 582.108C381.571 582.108 380.347 580.824 380.347 578.868C380.347 576.936 381.535 575.604 383.395 575.604C385.207 575.604 386.419 576.876 386.419 578.856C386.419 580.776 385.243 582.108 383.395 582.108ZM383.395 581.268C384.619 581.268 385.435 580.38 385.435 578.856C385.435 577.344 384.655 576.42 383.395 576.42C382.171 576.42 381.343 577.32 381.343 578.868C381.343 580.356 382.135 581.268 383.395 581.268ZM387.799 582V573.252H388.771V582H387.799ZM390.6 582V573.252H391.572V582H390.6Z" fill="#A7A0A0" style="fill:#A7A0A0;fill:color(display-p3 0.6541 0.6259 0.6290);fill-opacity:1;"/>
<path d="M535.444 583.02V582.096C533.5 581.964 532.588 580.836 532.552 579.276H533.608C533.644 580.392 534.196 581.148 535.444 581.268V577.908C533.728 577.572 532.756 577.044 532.756 575.556C532.756 574.176 533.752 573.264 535.444 573.168V572.232H536.176V573.168C537.82 573.312 538.744 574.272 538.768 575.688H537.736C537.7 574.692 537.112 574.128 536.176 573.996V577.032C537.688 577.308 539.044 577.704 539.044 579.648C539.044 581.028 538.036 581.988 536.176 582.096V583.02H535.444ZM533.812 575.424C533.812 576.324 534.28 576.624 535.444 576.888V573.972C534.4 574.056 533.812 574.608 533.812 575.424ZM537.988 579.744C537.988 578.736 537.496 578.352 536.176 578.052V581.28C537.268 581.196 537.988 580.692 537.988 579.744ZM543.229 582.096C541.201 582.096 540.193 580.668 540.193 578.076C540.193 574.752 541.249 573.24 543.349 573.24C544.945 573.24 545.929 574.104 546.061 575.46H545.125C545.005 574.584 544.309 574.092 543.349 574.092C541.585 574.092 541.189 575.652 541.165 577.872H541.225C541.489 576.96 542.341 576.372 543.493 576.372C545.077 576.372 546.157 577.488 546.157 579.204C546.157 581.004 544.957 582.096 543.229 582.096ZM543.253 581.244C544.405 581.244 545.161 580.428 545.161 579.168C545.161 577.908 544.405 577.128 543.277 577.128C542.053 577.128 541.321 578.04 541.321 579.24C541.321 580.488 542.101 581.244 543.253 581.244ZM547.139 583.86V583.308H547.295C547.667 583.272 547.787 583.008 547.787 582.624V582H547.331V580.92H548.327V582.684C548.327 583.5 547.991 583.812 547.391 583.848L547.139 583.86ZM552.543 582.108C550.803 582.108 549.675 581.004 549.675 579.36H550.635C550.623 580.488 551.379 581.244 552.555 581.244C553.827 581.244 554.547 580.404 554.547 579.18C554.547 577.86 553.767 577.08 552.579 577.08C551.691 577.08 551.043 577.524 550.767 578.148H549.855L550.047 573.348H555.135V574.2H550.899L550.767 577.14L550.827 577.164C551.199 576.612 551.931 576.252 552.771 576.252C554.463 576.252 555.555 577.428 555.555 579.144C555.555 580.92 554.379 582.108 552.543 582.108ZM559.536 582.108C557.771 582.108 556.668 581.004 556.692 579.348H557.64C557.604 580.488 558.36 581.256 559.536 581.256C560.7 581.256 561.468 580.584 561.468 579.54C561.468 578.448 560.76 577.92 559.704 577.92H558.816V577.152H559.668C560.76 577.152 561.336 576.48 561.336 575.592C561.336 574.632 560.628 574.092 559.572 574.092C558.384 574.092 557.712 574.836 557.7 575.964H556.764C556.74 574.32 557.868 573.24 559.596 573.24C561.276 573.24 562.344 574.128 562.344 575.496C562.344 576.48 561.78 577.212 560.94 577.476V577.536C561.912 577.764 562.476 578.544 562.476 579.612C562.476 581.112 561.3 582.108 559.536 582.108ZM566.653 582.108C564.781 582.108 563.569 580.524 563.569 577.668C563.569 574.776 564.805 573.252 566.653 573.252C568.501 573.252 569.701 574.824 569.701 577.668C569.701 580.56 568.465 582.108 566.653 582.108ZM566.641 581.268C567.949 581.268 568.717 580.104 568.717 577.668C568.717 575.244 567.949 574.08 566.641 574.08C565.321 574.08 564.553 575.232 564.553 577.668C564.553 580.104 565.321 581.268 566.641 581.268ZM570.852 582V580.92H571.848V582H570.852ZM573.087 582V581.808C573.087 578.532 577.611 578.112 577.611 575.76C577.611 574.74 576.915 574.092 575.859 574.092C574.755 574.092 573.999 574.812 574.047 575.964H573.111C573.051 574.32 574.215 573.24 575.919 573.24C577.551 573.24 578.619 574.236 578.619 575.7C578.619 578.388 574.599 579.06 574.275 581.136H578.727V582H573.087ZM582.86 582.108C580.988 582.108 579.776 580.524 579.776 577.668C579.776 574.776 581.012 573.252 582.86 573.252C584.708 573.252 585.908 574.824 585.908 577.668C585.908 580.56 584.672 582.108 582.86 582.108ZM582.848 581.268C584.156 581.268 584.924 580.104 584.924 577.668C584.924 575.244 584.156 574.08 582.848 574.08C581.528 574.08 580.76 575.232 580.76 577.668C580.76 580.104 581.528 581.268 582.848 581.268Z" fill="#A7A0A0" style="fill:#A7A0A0;fill:color(display-p3 0.6541 0.6259 0.6290);fill-opacity:1;"/>
<path d="M355.042 527L358.668 516.794H360.81L364.436 527H362.84L362 524.62H357.478L356.638 527H355.042ZM357.842 523.43H361.622L360.502 520.28L359.788 518.194H359.704L358.99 520.28L357.842 523.43ZM369.663 527.126C366.653 527.126 364.665 525.124 364.665 521.904C364.665 518.67 366.667 516.682 369.663 516.682C372.183 516.682 373.989 518.068 374.297 520.21H372.757C372.477 518.908 371.329 517.998 369.663 517.998C367.549 517.998 366.233 519.412 366.233 521.904C366.233 524.382 367.549 525.81 369.663 525.81C371.315 525.81 372.505 524.914 372.757 523.542L374.297 523.556C374.031 525.712 372.183 527.126 369.663 527.126ZM376.084 527V516.794H378.422L381.264 524.606H381.32L384.162 516.794H386.486V527H385.002V522.226L385.044 518.404H384.946L381.908 527H380.69L377.652 518.404H377.554L377.582 522.24V527H376.084ZM388.962 527V516.794H396.116V518.11H390.488V521.176H395.43V522.408H390.488V525.67H396.13V527H388.962ZM401.199 527V516.794H402.725V525.628H407.597V527H401.199ZM408.951 527V516.794H410.477V525.628H415.349V527H408.951ZM420.578 527.126C417.568 527.126 415.58 525.124 415.58 521.904C415.58 518.67 417.582 516.682 420.578 516.682C423.098 516.682 424.904 518.068 425.212 520.21H423.672C423.392 518.908 422.244 517.998 420.578 517.998C418.464 517.998 417.148 519.412 417.148 521.904C417.148 524.382 418.464 525.81 420.578 525.81C422.23 525.81 423.42 524.914 423.672 523.542L425.212 523.556C424.946 525.712 423.098 527.126 420.578 527.126Z" fill="white" style="fill:white;fill-opacity:1;"/>
<path d="M536.004 528.19V527.112C533.736 526.944 532.616 525.642 532.588 523.808H534.142C534.17 525.11 534.884 525.936 536.536 525.936C537.866 525.936 538.776 525.418 538.776 524.326C538.776 523.122 538.118 522.772 536.214 522.422C534.086 522.044 532.812 521.414 532.812 519.58C532.812 517.914 534.016 516.836 536.004 516.696V515.604H536.928V516.696C538.874 516.864 540.008 518.012 540.036 519.664H538.496C538.454 518.432 537.614 517.844 536.382 517.844C535.122 517.844 534.38 518.446 534.38 519.384C534.38 520.518 535.108 520.742 536.97 521.092C538.706 521.4 540.344 521.834 540.344 524.186C540.344 525.838 539.168 526.986 536.928 527.112V528.19H536.004ZM543.811 527V519.692H541.375V518.586H541.767C543.111 518.586 543.769 517.914 543.867 516.906H545.253V527H543.811ZM547.258 527V526.748C547.258 522.814 552.424 522.352 552.424 519.776C552.424 518.712 551.696 518.026 550.59 518.026C549.428 518.026 548.63 518.782 548.7 520.042H547.286C547.23 518.068 548.616 516.78 550.674 516.78C552.634 516.78 553.922 517.942 553.922 519.706C553.922 522.786 549.568 523.542 549.064 525.726H554.034V527H547.258ZM555.171 529.226V528.456H555.381C555.871 528.428 556.039 528.12 556.039 527.644V527H555.395V525.53H556.823V527.728C556.823 528.792 556.347 529.184 555.535 529.226H555.171ZM561.78 527.126C559.68 527.126 558.336 525.838 558.322 523.92H559.764C559.764 525.082 560.562 525.852 561.794 525.852C563.124 525.852 563.894 524.97 563.894 523.696C563.894 522.324 563.068 521.484 561.808 521.484C560.842 521.484 560.17 521.96 559.89 522.632H558.518L558.756 516.906H564.846V518.166H560.03L559.89 521.162L559.974 521.19C560.38 520.63 561.192 520.266 562.102 520.266C564.104 520.266 565.378 521.652 565.378 523.64C565.378 525.726 563.978 527.126 561.78 527.126ZM570.074 527.126C567.932 527.126 566.63 525.838 566.63 523.892H568.044C568.016 525.082 568.828 525.88 570.074 525.88C571.306 525.88 572.118 525.166 572.118 524.06C572.118 522.926 571.376 522.366 570.27 522.366H569.164V521.26H570.186C571.348 521.26 571.964 520.546 571.964 519.608C571.964 518.6 571.222 518.026 570.102 518.026C568.856 518.026 568.142 518.796 568.128 519.972H566.714C566.714 518.04 568.072 516.78 570.158 516.78C572.16 516.78 573.448 517.83 573.448 519.44C573.448 520.56 572.818 521.414 571.88 521.722V521.806C572.972 522.072 573.602 522.968 573.602 524.186C573.602 525.95 572.188 527.126 570.074 527.126ZM578.514 527.112C576.26 527.112 574.832 525.222 574.832 521.932C574.832 518.586 576.316 516.794 578.528 516.794C580.754 516.794 582.154 518.67 582.154 521.946C582.154 525.306 580.684 527.112 578.514 527.112ZM578.5 525.88C579.872 525.88 580.712 524.718 580.712 521.946C580.712 519.174 579.872 518.012 578.5 518.012C577.128 518.012 576.288 519.16 576.288 521.946C576.288 524.718 577.128 525.88 578.5 525.88ZM583.424 527V525.53H584.866V527H583.424ZM589.625 527.126C587.483 527.126 586.181 525.838 586.181 523.892H587.595C587.567 525.082 588.379 525.88 589.625 525.88C590.857 525.88 591.669 525.166 591.669 524.06C591.669 522.926 590.927 522.366 589.821 522.366H588.715V521.26H589.737C590.899 521.26 591.515 520.546 591.515 519.608C591.515 518.6 590.773 518.026 589.653 518.026C588.407 518.026 587.693 518.796 587.679 519.972H586.265C586.265 518.04 587.623 516.78 589.709 516.78C591.711 516.78 592.999 517.83 592.999 519.44C592.999 520.56 592.369 521.414 591.431 521.722V521.806C592.523 522.072 593.153 522.968 593.153 524.186C593.153 525.95 591.739 527.126 589.625 527.126ZM598.079 527.126C595.979 527.126 594.635 525.838 594.621 523.92H596.063C596.063 525.082 596.861 525.852 598.093 525.852C599.423 525.852 600.193 524.97 600.193 523.696C600.193 522.324 599.367 521.484 598.107 521.484C597.141 521.484 596.469 521.96 596.189 522.632H594.817L595.055 516.906H601.145V518.166H596.329L596.189 521.162L596.273 521.19C596.679 520.63 597.491 520.266 598.401 520.266C600.403 520.266 601.677 521.652 601.677 523.64C601.677 525.726 600.277 527.126 598.079 527.126Z" fill="white" style="fill:white;fill-opacity:1;"/>
<path d="M522.614 524.167C522.394 525.94 520.94 527.393 519.167 527.613C518.094 527.747 517.094 527.453 516.314 526.88C515.867 526.553 515.974 525.86 516.507 525.7C518.514 525.093 520.094 523.507 520.707 521.5C520.867 520.973 521.56 520.867 521.887 521.307C522.454 522.093 522.747 523.093 522.614 524.167Z" fill="#BAB5B6" style="fill:#BAB5B6;fill:color(display-p3 0.7307 0.7093 0.7118);fill-opacity:1;"/>
<path d="M514.66 514.333C511.72 514.333 509.333 516.72 509.333 519.66C509.333 522.6 511.72 524.987 514.66 524.987C517.6 524.987 519.987 522.6 519.987 519.66C519.98 516.72 517.6 514.333 514.66 514.333ZM514.033 518.913L515.64 519.473C516.22 519.68 516.5 520.087 516.5 520.713C516.5 521.433 515.927 522.027 515.227 522.027H515.167V522.06C515.167 522.333 514.94 522.56 514.667 522.56C514.393 522.56 514.167 522.333 514.167 522.06V522.02C513.427 521.987 512.833 521.367 512.833 520.593C512.833 520.32 513.06 520.093 513.333 520.093C513.607 520.093 513.833 520.32 513.833 520.593C513.833 520.833 514.007 521.027 514.22 521.027H515.22C515.373 521.027 515.493 520.887 515.493 520.713C515.493 520.48 515.453 520.467 515.3 520.413L513.693 519.853C513.12 519.653 512.833 519.247 512.833 518.613C512.833 517.893 513.407 517.3 514.107 517.3H514.167V517.273C514.167 517 514.393 516.773 514.667 516.773C514.94 516.773 515.167 517 515.167 517.273V517.313C515.907 517.347 516.5 517.967 516.5 518.74C516.5 519.013 516.273 519.24 516 519.24C515.727 519.24 515.5 519.013 515.5 518.74C515.5 518.5 515.327 518.307 515.113 518.307H514.113C513.96 518.307 513.84 518.447 513.84 518.62C513.833 518.847 513.873 518.86 514.033 518.913Z" fill="#BAB5B6" style="fill:#BAB5B6;fill:color(display-p3 0.7307 0.7093 0.7118);fill-opacity:1;"/>
<path d="M324.5 543V555.5M324.5 555.5H339.5M324.5 555.5V571C324.5 575.418 328.082 579 332.5 579H339.5" stroke="#5D5657" style="stroke:#5D5657;stroke:color(display-p3 0.3647 0.3373 0.3412);stroke-opacity:1;"/>
<path d="M288.422 416V402.878H294.002C297.926 402.878 300.05 405.524 300.05 409.448C300.05 413.372 297.908 416 294.002 416H288.422ZM291.23 413.606H293.552C295.658 413.606 297.188 412.562 297.188 409.394C297.188 406.298 295.694 405.254 293.552 405.254H291.23V413.606ZM305.191 416.162C302.887 416.162 301.339 414.488 301.339 411.176C301.339 407.846 302.887 406.172 305.191 406.172C306.685 406.172 307.801 406.91 308.251 408.026H308.395L308.503 406.352H311.041V416H308.395V414.308H308.251C307.801 415.424 306.685 416.162 305.191 416.162ZM306.199 414.02C307.675 414.02 308.359 412.868 308.359 411.626V410.708C308.359 409.466 307.675 408.314 306.199 408.314C304.903 408.314 304.039 409.214 304.039 411.176C304.039 413.12 304.903 414.02 306.199 414.02ZM317.176 416.18C314.368 416.18 312.784 414.884 312.802 412.958H315.394C315.412 413.984 316.204 414.398 317.248 414.398C318.328 414.398 318.886 414.002 318.886 413.354C318.886 412.472 318.274 412.346 316.906 412.148C314.764 411.86 313.054 411.356 313.054 409.232C313.054 407.198 314.746 406.172 317.266 406.172C319.732 406.172 321.298 407.306 321.352 409.214H318.76C318.76 408.404 318.148 407.954 317.194 407.954C316.204 407.954 315.7 408.368 315.7 408.962C315.7 409.682 316.312 409.898 317.734 410.078C319.732 410.348 321.55 410.744 321.55 413.102C321.55 415.226 319.894 416.18 317.176 416.18ZM323.325 416V402.878H325.971V408.098H326.079C326.601 406.82 327.789 406.172 329.157 406.172C331.083 406.172 332.559 407.27 332.559 410.168V416H329.913V410.744C329.913 409.124 329.373 408.332 328.095 408.332C326.727 408.332 325.971 409.412 325.971 410.636V416H323.325ZM340.584 416.18C339.09 416.18 337.974 415.424 337.524 414.326H337.38L337.272 416H334.734V402.878H337.38V408.026H337.524C337.974 406.91 339.09 406.172 340.584 406.172C342.888 406.172 344.436 407.846 344.436 411.176C344.436 414.488 342.888 416.18 340.584 416.18ZM339.576 414.038C340.872 414.038 341.736 413.138 341.736 411.176C341.736 409.214 340.872 408.314 339.576 408.314C338.1 408.314 337.398 409.484 337.398 410.708V411.644C337.398 412.868 338.1 414.038 339.576 414.038ZM350.566 416.162C347.668 416.162 345.724 414.308 345.724 411.176C345.724 408.188 347.506 406.172 350.566 406.172C353.446 406.172 355.39 408.044 355.39 411.176C355.39 414.164 353.608 416.162 350.566 416.162ZM350.548 414.02C351.844 414.02 352.708 413.102 352.708 411.176C352.708 409.268 351.88 408.332 350.566 408.332C349.252 408.332 348.388 409.25 348.388 411.176C348.388 413.084 349.234 414.02 350.548 414.02ZM360.527 416.162C358.223 416.162 356.675 414.488 356.675 411.176C356.675 407.846 358.223 406.172 360.527 406.172C362.021 406.172 363.137 406.91 363.587 408.026H363.731L363.839 406.352H366.377V416H363.731V414.308H363.587C363.137 415.424 362.021 416.162 360.527 416.162ZM361.535 414.02C363.011 414.02 363.695 412.868 363.695 411.626V410.708C363.695 409.466 363.011 408.314 361.535 408.314C360.239 408.314 359.375 409.214 359.375 411.176C359.375 413.12 360.239 414.02 361.535 414.02ZM368.642 416V406.352H371.036L371.144 407.9H371.234C371.666 406.658 372.674 406.226 373.898 406.226H374.438V408.71H373.844C372.062 408.71 371.324 409.52 371.288 410.96V416H368.642ZM378.931 416.162C376.627 416.162 375.079 414.488 375.079 411.176C375.079 407.846 376.627 406.172 378.931 406.172C380.425 406.172 381.541 406.91 381.991 408.026H382.135V402.878H384.781V416H382.225L382.135 414.308H381.991C381.541 415.424 380.425 416.162 378.931 416.162ZM379.939 414.02C381.415 414.02 382.099 412.868 382.099 411.626V410.708C382.099 409.466 381.415 408.314 379.939 408.314C378.643 408.314 377.779 409.214 377.779 411.176C377.779 413.12 378.643 414.02 379.939 414.02Z" fill="white" style="fill:white;fill-opacity:1;"/>
<circle cx="1201" cy="380" r="4" fill="#FA9EB5" style="fill:#FA9EB5;fill:color(display-p3 0.9804 0.6196 0.7098);fill-opacity:1;"/>
<circle cx="239" cy="380" r="4" fill="#FA9EB5" style="fill:#FA9EB5;fill:color(display-p3 0.9804 0.6196 0.7098);fill-opacity:1;"/>
<line x1="263.5" y1="379.5" x2="1176.5" y2="379.5" stroke="#5D5657" style="stroke:#5D5657;stroke:color(display-p3 0.3647 0.3373 0.3412);stroke-opacity:1;" stroke-linecap="round" stroke-dasharray="1 4"/>
<defs>
<filter id="filter0_i_1422_1242" x="311" y="507" width="32" height="32" filterUnits="userSpaceOnUse" color-interpolation-filters="sRGB">
<feFlood flood-opacity="0" result="BackgroundImageFix"/>
<feBlend mode="normal" in="SourceGraphic" in2="BackgroundImageFix" result="shape"/>
<feColorMatrix in="SourceAlpha" type="matrix" values="0 0 0 0 0 0 0 0 0 0 0 0 0 0 0 0 0 0 127 0" result="hardAlpha"/>
<feMorphology radius="2" operator="erode" in="SourceAlpha" result="effect1_innerShadow_1422_1242"/>
<feOffset/>
<feGaussianBlur stdDeviation="1"/>
<feComposite in2="hardAlpha" operator="arithmetic" k2="-1" k3="1"/>
<feColorMatrix type="matrix" values="0 0 0 0 0.980392 0 0 0 0 0.619608 0 0 0 0 0.709804 0 0 0 0.1 0"/>
<feBlend mode="normal" in2="shape" result="effect1_innerShadow_1422_1242"/>
</filter>
</defs>
</svg>
