<svg width="1440" height="900" viewBox="0 0 1440 900" fill="none" xmlns="http://www.w3.org/2000/svg">
<path d="M1777.54 471.564L1585.87 266.041C1584.36 264.418 1582.24 263.497 1580.02 263.497L1281.84 263.474C1279.72 263.474 1277.68 264.317 1276.18 265.817L1018.44 523.564C1016.94 525.064 1016.09 527.099 1016.09 529.221L1016.09 699.978C1016.09 702.226 1017.04 704.369 1018.7 705.885L1194.13 866.119C1195.7 867.549 1196.63 869.541 1196.73 871.658L1202.08 987.873C1202.18 989.865 1203.01 991.751 1204.42 993.162L1371.6 1160.35" stroke="white" stroke-opacity="0.2" style="stroke:white;stroke-opacity:0.2;"/>
<path d="M-337.241 471.564L-145.567 266.041C-144.054 264.418 -141.936 263.497 -139.718 263.497L158.461 263.474C160.583 263.474 162.618 264.317 164.119 265.817L421.866 523.564C423.366 525.064 424.209 527.099 424.209 529.221L424.209 692.268C424.209 694.451 423.317 696.54 421.739 698.049L246.037 866.138C244.552 867.559 243.67 869.497 243.576 871.551L238.218 987.873C238.126 989.865 237.294 991.751 235.883 993.162L68.6987 1160.35" stroke="white" stroke-opacity="0.2" style="stroke:white;stroke-opacity:0.2;"/>
<line x1="1016.5" y1="1.85176e-08" x2="1016.5" y2="527" stroke="white" stroke-opacity="0.2" style="stroke:white;stroke-opacity:0.2;"/>
<line x1="424.5" y1="1.85176e-08" x2="424.5" y2="527" stroke="white" stroke-opacity="0.2" style="stroke:white;stroke-opacity:0.2;"/>
</svg>
